<?xml version="1.0" encoding="UTF-8" standalone="no"?>
<!DOCTYPE svg PUBLIC "-//W3C//DTD SVG 1.1//EN" "http://www.w3.org/Graphics/SVG/1.1/DTD/svg11.dtd">
<svg xmlns="http://www.w3.org/2000/svg" version="1.1" viewBox="0.00 0.00 1024.00 1024.00">

<g stroke-width="2.00" fill="none" stroke-linecap="butt">
<path stroke="#ea4e88" d="
  M 383.89 233.78
  Q 384.01 234.38 382.67 233.95
  Q 381.67 233.63 380.85 234.43
  Q 380.69 234.58 380.79 234.77
  Q 380.89 234.96 381.02 234.94
  Q 381.46 234.85 381.53 235.39
  Q 381.76 237.30 383.38 238.48
  Q 383.83 238.82 383.85 239.38
  L 383.90 241.35
  A 1.13 1.12 -66.9 0 0 384.19 242.08
  Q 385.13 243.10 385.06 244.44
  Q 384.97 246.23 385.73 247.50
  Q 386.20 248.30 386.48 249.14
  Q 387.58 252.40 388.90 255.53
  Q 389.10 255.98 389.58 256.07
  Q 390.51 256.23 391.47 256.07
  Q 392.13 255.96 392.41 256.56
  Q 394.28 260.58 395.82 264.72
  C 396.56 266.71 397.74 268.28 398.30 270.35
  Q 399.07 273.20 400.28 276.04
  A 1.39 1.39 0.0 0 0 401.02 276.78
  Q 401.60 277.03 401.72 277.65
  A 1.38 1.25 -68.6 0 0 401.84 277.97
  C 402.48 279.16 403.15 279.82 404.09 280.74
  Q 405.01 281.65 404.71 282.91
  Q 404.63 283.24 404.87 283.48
  Q 406.34 284.99 406.33 287.13
  Q 406.33 287.24 406.38 287.35
  Q 406.48 287.58 406.74 287.58
  Q 407.28 287.59 407.36 288.13
  Q 407.66 290.16 408.91 291.74
  Q 409.09 291.97 408.94 292.23
  Q 407.93 293.92 409.19 295.27
  Q 409.47 295.57 409.36 295.97
  Q 409.15 296.68 409.77 297.01
  Q 410.19 297.23 410.26 297.70
  Q 410.51 299.47 410.53 301.29
  Q 410.53 301.79 410.35 302.25
  Q 410.15 302.76 410.49 303.17
  Q 410.78 303.52 410.41 303.78
  Q 409.91 304.14 409.70 304.70
  A 0.32 0.32 0.0 0 0 410.11 305.11
  Q 410.65 304.92 410.66 305.48
  Q 410.67 305.63 410.77 305.74
  Q 410.97 305.95 411.07 305.84
  Q 411.37 305.55 411.70 305.79
  Q 413.31 306.93 413.40 308.20"
/>
<path stroke="#c7559b" d="
  M 338.90 293.36
  Q 337.20 292.43 340.47 292.38
  Q 340.63 292.38 340.74 292.27
  Q 340.78 292.22 340.84 292.20
  Q 341.43 292.01 340.82 292.11
  Q 340.48 292.17 340.15 292.04
  Q 339.83 291.90 339.64 291.63
  Q 339.02 290.74 338.60 289.58
  Q 338.22 288.50 337.76 287.43
  Q 336.32 284.08 335.00 280.35
  Q 333.37 275.79 332.20 273.28
  Q 330.81 270.30 329.37 267.41
  Q 328.05 264.76 326.03 261.73
  Q 323.16 257.43 322.34 254.26
  Q 320.75 248.02 317.15 243.75
  Q 316.66 243.16 315.98 242.85
  C 313.45 241.67 314.49 239.78 313.40 237.80
  Q 313.21 237.46 312.88 237.66
  Q 312.74 237.75 312.59 237.78
  Q 312.25 237.86 312.17 237.52
  Q 312.14 237.40 312.12 237.25"
/>
<path stroke="#995db7" d="
  M 263.56 317.94
  Q 262.83 313.74 260.16 311.83
  Q 260.04 311.74 260.01 311.61
  Q 259.94 311.38 260.19 311.37
  A 0.18 0.18 0.0 0 0 260.35 311.11
  Q 259.25 308.71 257.76 305.83
  Q 256.71 303.80 256.29 301.92
  Q 256.15 301.29 255.57 300.99
  Q 253.70 300.02 253.50 297.00
  Q 253.46 296.43 253.05 296.04
  C 251.86 294.92 250.93 294.18 250.24 292.59
  Q 243.99 278.34 236.76 264.66"
/>
<path stroke="#7761bf" d="
  M 199.66 372.29
  Q 199.78 369.47 198.50 367.41
  Q 197.41 365.64 197.07 364.66
  Q 196.58 363.22 195.90 361.72
  Q 195.72 361.32 195.35 361.08
  Q 194.37 360.44 194.65 359.05
  A 0.74 0.73 -89.9 0 1 195.21 358.48
  L 197.29 357.99
  A 0.65 0.64 -26.0 0 0 197.65 356.96
  Q 195.60 354.37 194.51 351.20
  Q 193.68 348.80 192.58 346.38
  Q 192.54 346.31 192.46 346.31
  Q 192.29 346.31 192.25 346.43
  Q 192.05 347.02 192.02 346.40
  Q 191.92 344.75 191.87 342.99
  Q 191.85 342.19 191.06 342.15
  Q 190.49 342.13 190.14 341.67
  Q 188.88 339.95 186.74 339.10
  Q 185.98 338.80 186.56 338.22
  L 186.74 338.03
  A 0.74 0.74 0.0 0 0 186.82 337.08
  Q 185.51 335.24 183.74 333.74
  Q 183.41 333.46 183.35 333.03
  L 183.07 331.03
  Q 183.00 330.56 182.63 330.24
  Q 181.02 328.91 180.63 326.72
  Q 180.54 326.24 180.14 325.97
  Q 179.29 325.40 179.44 324.49
  Q 179.67 323.11 179.05 322.30
  A 0.77 0.75 36.3 0 1 178.93 321.56
  Q 179.08 321.12 179.07 320.64
  A 1.68 1.63 26.4 0 0 178.75 319.73
  Q 177.83 318.48 177.65 316.25
  Q 177.49 314.18 175.63 308.02"
/>
<path stroke="#aa5590" d="
  M 164.52 431.39
  Q 160.81 434.34 157.41 436.94
  Q 130.82 457.24 103.14 476.02
  Q 100.50 477.81 96.87 479.97
  Q 93.83 481.78 90.54 483.84"
/>
<path stroke="#ee505d" d="
  M 163.19 527.81
  Q 162.57 529.36 162.02 530.72
  Q 161.61 531.74 162.39 532.44
  A 0.83 0.83 0.0 0 1 162.47 533.58
  Q 162.22 533.88 162.27 534.26
  Q 162.34 534.83 162.01 535.33
  Q 161.41 536.21 161.14 537.20
  Q 160.87 538.23 159.99 539.21
  Q 157.87 541.56 156.89 544.60
  Q 155.43 549.11 152.93 553.28
  A 1.81 1.79 -29.7 0 0 152.67 554.21
  Q 152.66 555.61 152.14 556.83
  Q 149.91 562.02 148.77 567.41
  Q 148.14 570.35 146.34 572.49
  Q 145.47 573.52 145.01 574.72
  Q 144.52 575.99 143.71 577.09
  Q 142.59 578.62 141.97 580.59
  Q 140.54 585.14 137.91 588.83
  A 1.90 1.89 -38.5 0 0 137.70 590.64
  Q 138.71 593.15 138.07 595.99
  Q 137.50 598.48 136.36 600.99
  Q 136.27 601.20 136.41 601.38
  Q 136.70 601.75 136.41 602.11
  Q 134.49 604.53 134.93 607.02
  Q 135.06 607.74 134.41 607.39
  Q 133.45 606.88 133.14 607.86"
/>
<path stroke="#f3644a" d="
  M 180.43 555.23
  Q 179.61 555.91 180.44 556.40
  A 1.15 1.15 0.0 0 1 180.77 558.09
  Q 180.20 558.82 179.82 557.98
  Q 179.50 557.28 179.00 557.86
  Q 177.83 559.18 176.91 561.01
  Q 176.85 561.12 176.96 561.21
  Q 177.00 561.24 177.03 561.29
  Q 177.13 561.51 176.96 561.69
  Q 175.46 563.22 174.74 564.77
  Q 173.21 568.04 171.86 572.17
  Q 171.42 573.51 170.76 574.76
  Q 170.20 575.83 169.88 577.00
  Q 169.24 579.28 169.18 579.47
  Q 168.67 581.08 168.34 582.81
  Q 168.02 584.48 167.22 585.89
  Q 164.88 589.96 164.33 594.37
  Q 164.13 596.01 163.75 597.56
  Q 163.22 599.79 162.78 600.62
  Q 161.02 603.93 160.09 607.53
  Q 159.97 608.00 159.56 608.24
  C 159.12 608.49 158.87 608.84 158.80 609.34
  Q 158.37 612.25 158.10 615.13
  Q 158.03 615.79 157.63 616.32
  Q 157.30 616.76 156.80 617.01
  Q 156.27 617.27 156.25 617.85
  L 155.89 627.28"
/>
<path stroke="#f67939" d="
  M 218.00 582.55
  Q 217.21 583.28 216.14 582.44
  Q 215.75 582.14 215.44 582.52
  Q 214.02 584.27 213.83 586.42
  Q 213.66 588.49 213.53 590.33
  Q 213.40 592.03 212.16 593.56
  Q 210.68 595.38 209.24 596.92
  A 0.91 0.90 68.1 0 0 208.99 597.52
  L 208.73 604.33
  A 0.56 0.55 -33.2 0 1 208.68 604.56
  Q 208.04 606.02 208.59 607.31
  Q 208.83 607.89 208.20 607.89
  L 207.25 607.89
  A 0.72 0.72 0.0 0 0 206.53 608.53
  C 206.41 609.72 206.09 611.00 206.34 612.17
  Q 206.99 615.25 207.40 618.25
  Q 207.63 619.97 208.07 621.70
  Q 208.51 623.44 208.77 625.31
  Q 209.14 628.07 209.88 630.72
  Q 210.59 633.28 210.99 635.42
  Q 211.35 637.32 210.36 640.44
  Q 210.27 640.71 210.51 640.87
  Q 210.74 641.02 210.65 641.28
  Q 209.97 643.25 211.18 644.87
  A 3.47 3.38 -64.2 0 1 211.87 646.94
  Q 211.87 648.89 212.94 651.89"
/>
<path stroke="#f9902d" d="
  M 267.76 655.59
  Q 267.62 655.38 267.47 655.26
  Q 266.86 654.77 267.64 654.87
  Q 267.81 654.89 267.98 654.85
  Q 268.54 654.73 268.41 654.17
  Q 268.01 652.54 266.86 651.98
  Q 266.28 651.70 265.93 651.17
  Q 264.02 648.29 261.51 646.20
  A 1.69 1.68 18.7 0 1 260.90 644.97
  Q 260.84 643.06 259.24 641.98
  Q 258.48 641.47 258.19 640.61
  Q 257.61 638.90 256.67 637.37
  Q 255.97 636.23 256.19 634.90
  Q 256.56 632.73 257.08 630.92
  Q 257.14 630.71 257.13 630.50
  Q 257.12 630.20 256.94 629.96
  Q 256.64 629.54 256.57 629.03
  Q 256.01 624.50 254.74 620.01
  Q 254.13 619.49 254.49 618.82
  Q 254.69 618.43 254.46 618.06
  Q 253.22 616.12 252.90 613.87
  Q 252.61 611.81 251.87 609.52
  Q 251.67 608.92 252.26 608.69
  Q 252.64 608.55 252.57 608.12
  Q 252.55 607.98 252.41 607.92
  Q 252.28 607.87 252.15 607.87
  Q 251.81 607.87 251.73 607.54
  Q 250.27 601.86 251.06 596.04
  Q 251.12 595.55 250.87 595.14
  Q 250.38 594.35 250.75 593.32
  A 0.05 0.05 0.0 0 1 250.84 593.32
  Q 250.91 593.51 251.08 593.40
  Q 252.08 592.76 250.91 592.67
  Q 250.63 592.65 250.73 592.37
  Q 250.88 591.96 251.18 591.74
  Q 251.48 591.51 251.83 591.21"
/>
<path stroke="#f8aa2b" d="
  M 381.77 617.38
  Q 381.52 616.80 381.74 616.22
  Q 382.03 615.41 381.28 615.83
  L 380.79 616.10
  Q 380.23 616.40 379.77 615.95
  Q 379.37 615.56 379.54 615.08
  Q 379.71 614.59 379.22 614.38
  Q 378.73 614.18 378.14 614.17
  C 376.41 614.14 374.90 612.72 374.48 611.17
  Q 374.37 610.73 374.07 610.41
  Q 372.09 608.22 371.10 604.99
  Q 370.82 604.08 369.96 604.48
  A 1.07 1.06 44.0 0 1 369.07 604.49
  Q 367.61 603.84 367.22 602.54
  Q 366.94 601.59 366.53 600.65
  Q 364.60 596.24 362.85 591.99
  Q 361.10 587.76 358.87 583.33
  Q 358.66 582.90 358.25 582.65
  Q 357.66 582.27 357.84 581.58
  Q 357.97 581.04 357.57 580.65
  Q 356.72 579.84 356.40 578.73
  Q 356.19 578.01 355.46 577.84
  A 0.26 0.26 0.0 0 1 355.27 577.50
  Q 355.33 577.33 355.50 577.28
  Q 356.09 577.10 355.70 576.63
  Q 354.95 575.73 353.88 575.19
  A 1.15 1.12 -85.3 0 1 353.30 574.49
  Q 353.24 574.27 353.33 574.04
  A 0.60 0.59 38.4 0 0 353.26 573.49
  Q 352.72 572.69 352.01 573.05
  Q 351.60 573.26 351.50 572.80
  Q 351.23 571.51 350.45 570.26
  Q 350.19 569.84 349.70 569.90
  Q 348.50 570.07 347.52 569.73"
/>
<path stroke="#e5c233" d="
  M 408.03 597.49
  Q 407.87 596.73 408.52 595.84
  Q 408.85 595.38 408.47 594.97
  Q 408.16 594.62 407.76 594.40
  Q 407.19 594.07 406.91 593.47
  Q 405.94 591.37 405.02 589.24
  Q 404.37 587.73 402.94 585.14
  Q 402.02 583.48 401.30 581.65
  Q 400.63 579.92 399.64 578.30
  Q 396.75 573.57 393.55 569.34
  Q 391.54 566.70 390.03 563.56
  Q 388.57 560.54 385.57 557.79
  C 384.96 557.23 384.83 556.72 384.34 556.18
  C 382.97 554.69 381.10 553.67 379.84 552.31
  Q 378.58 550.93 377.31 549.30"
/>
<path stroke="#c4d03e" d="
  M 439.04 554.29
  L 438.96 553.76
  Q 438.88 553.22 438.43 553.54
  Q 436.89 554.62 435.59 553.15
  A 0.88 0.86 35.9 0 1 435.44 552.27
  Q 435.83 551.29 436.63 550.62
  Q 436.89 550.41 436.64 550.19
  Q 436.50 550.08 436.34 550.16
  A 0.36 0.36 0.0 0 1 435.81 549.82
  Q 435.83 549.38 436.24 549.29
  Q 436.55 549.23 436.30 549.05
  Q 435.49 548.45 435.10 547.49
  Q 434.92 547.05 434.52 546.81
  Q 432.44 545.53 430.72 543.80
  Q 430.47 543.55 430.14 543.45
  Q 429.67 543.31 429.64 542.80
  Q 429.60 542.31 429.38 542.75
  Q 429.25 543.02 428.99 543.12
  A 0.28 0.27 4.4 0 1 428.65 542.73
  Q 428.80 542.47 428.53 542.37
  Q 428.22 542.24 428.23 542.58
  Q 428.25 542.98 428.13 543.35
  Q 427.92 543.97 427.71 543.35
  Q 427.50 542.74 426.93 542.43
  Q 424.41 541.04 422.14 539.58
  Q 421.34 539.06 421.20 538.19
  Q 421.12 537.68 420.61 537.67
  Q 419.76 537.65 418.96 537.34
  Q 415.13 535.83 411.78 534.18
  Q 408.53 532.59 404.82 531.78
  Q 404.34 531.67 404.05 531.28
  Q 403.70 530.83 403.21 530.52
  Q 402.70 530.20 401.70 530.29
  Q 399.62 530.47 398.89 529.23"
/>
<path stroke="#a4cf48" d="
  M 492.48 429.81
  Q 491.85 429.94 491.86 429.10
  Q 491.87 428.29 491.37 428.93
  Q 491.27 429.06 491.12 429.09
  Q 490.63 429.18 490.23 428.90
  Q 489.23 428.20 488.02 428.61
  Q 487.56 428.77 487.09 428.61
  L 484.70 427.82
  Q 484.26 427.67 483.79 427.67
  Q 482.29 427.67 480.81 427.13
  Q 480.65 427.07 480.54 427.20
  Q 480.29 427.50 479.98 427.25
  Q 478.08 425.74 477.37 425.66
  Q 474.88 425.40 472.33 424.90
  C 470.44 424.52 468.63 425.14 466.87 424.10
  Q 466.42 423.83 465.91 423.98
  Q 464.06 424.49 462.39 423.43
  Q 462.29 423.37 462.23 423.47
  Q 462.17 423.59 462.06 423.67
  Q 461.93 423.77 461.76 423.75
  L 459.07 423.57
  Q 458.50 423.54 458.05 423.86
  Q 457.32 424.39 456.56 423.97
  A 1.05 1.05 0.0 0 0 455.72 423.88
  L 454.87 424.16
  Q 454.21 424.37 454.26 423.67
  Q 454.30 423.14 453.97 422.89
  Q 453.51 422.55 453.45 423.12
  Q 453.30 424.38 452.69 424.01"
/>
<path stroke="#37c4e0" d="
  M 604.95 354.05
  Q 604.62 354.66 604.63 355.10
  Q 604.65 355.61 604.31 355.98
  Q 604.02 356.31 603.57 356.40
  A 0.48 0.48 0.0 0 0 603.22 357.05
  Q 603.41 357.51 603.12 357.95
  Q 602.84 358.36 602.40 358.55
  Q 600.59 359.32 599.96 361.24
  Q 599.93 361.33 599.93 361.24
  Q 599.93 361.01 600.14 361.01
  A 0.15 0.15 0.0 0 1 600.29 361.19
  Q 600.25 361.46 600.52 361.44
  A 0.20 0.19 -88.4 0 0 600.71 361.25
  Q 600.71 360.79 601.07 361.09
  A 0.53 0.53 0.0 0 1 601.02 361.93
  Q 599.03 363.28 600.62 365.41
  Q 600.78 365.63 601.03 365.73
  Q 601.35 365.86 601.69 365.91
  Q 602.21 365.97 602.47 366.43
  Q 603.43 368.14 605.27 368.48
  Q 605.52 368.53 605.66 368.34
  Q 605.70 368.30 605.68 368.25
  Q 605.51 367.57 606.10 367.96
  Q 608.00 369.20 608.59 370.39
  Q 608.75 370.71 608.70 370.35
  Q 608.65 369.92 609.16 369.77
  Q 610.01 369.53 610.28 370.38
  L 610.64 371.53
  A 0.21 0.20 -20.6 0 0 610.91 371.65
  Q 611.04 371.60 611.17 371.64
  Q 611.47 371.73 611.66 371.97
  Q 612.71 373.27 613.92 374.60
  Q 614.03 374.71 614.08 374.85
  Q 614.13 375.00 614.10 375.16
  Q 613.96 375.87 614.65 376.12
  Q 615.92 376.56 616.96 377.43
  Q 617.45 377.84 618.07 377.77
  Q 619.54 377.60 620.66 378.41
  Q 622.33 379.61 622.74 381.36
  Q 622.84 381.75 623.18 381.98
  Q 624.14 382.60 624.39 383.65
  Q 624.47 384.03 624.85 383.94
  Q 626.02 383.66 626.96 384.29
  Q 628.02 385.02 629.39 385.04
  Q 629.89 385.05 630.05 385.52
  L 630.39 386.49
  Q 630.55 386.95 630.86 387.31
  Q 631.62 388.20 631.56 389.41
  A 2.28 2.28 0.0 0 0 631.79 390.53
  L 632.61 392.16
  Q 632.80 392.55 632.63 392.95
  Q 632.36 393.55 632.61 394.19
  A 0.83 0.82 -12.9 0 1 631.90 395.31
  Q 631.29 395.36 631.33 395.98
  Q 631.36 396.38 631.00 396.20
  Q 630.83 396.11 630.72 395.93
  Q 630.61 395.76 630.62 395.96
  Q 630.62 396.06 630.55 396.12
  Q 630.13 396.49 630.70 396.55
  Q 631.72 396.66 632.64 396.78
  Q 635.78 397.21 632.67 397.81
  Q 631.13 398.11 627.99 397.92
  Q 626.29 397.82 626.78 398.56"
/>
<path stroke="#3ecbcb" d="
  M 545.45 493.23
  Q 545.23 492.45 544.61 492.66
  A 0.53 0.49 2.2 0 0 544.33 492.90
  Q 544.05 493.47 544.63 493.38
  Q 544.39 493.33 544.19 493.41
  Q 543.88 493.52 543.63 493.31
  L 540.23 490.40
  Q 539.86 490.08 539.37 490.13
  Q 538.64 490.21 538.25 489.65
  Q 537.96 489.24 537.51 489.04
  Q 536.23 488.45 534.96 487.92
  Q 533.72 487.39 532.41 487.16
  Q 529.19 486.61 526.07 485.44
  C 525.17 485.10 523.95 485.26 523.02 484.94
  Q 516.56 482.72 510.44 480.94
  Q 510.11 480.84 509.87 480.60
  Q 509.48 480.22 509.05 480.47
  Q 508.55 480.76 508.24 480.27
  Q 508.06 479.99 507.74 479.88
  Q 502.28 478.08 498.62 477.39
  Q 496.77 477.04 494.81 477.93
  Q 494.34 478.15 493.82 478.12
  Q 490.81 477.98 488.30 479.37
  Q 487.79 479.66 487.42 479.21
  Q 487.19 478.93 486.77 478.74"
/>
<path stroke="#5090d0" d="
  M 747.60 384.55
  Q 751.70 400.92 748.19 418.74
  Q 744.45 437.66 738.36 456.34"
/>
<path stroke="#37c4e0" d="
  M 694.86 565.24
  Q 695.14 564.64 694.02 564.45
  Q 693.70 564.39 693.99 564.23
  L 694.33 564.05
  A 0.42 0.42 0.0 0 0 694.43 563.38
  L 692.95 561.94
  Q 692.54 561.54 691.99 561.68
  Q 690.95 561.95 690.23 561.33
  Q 689.18 560.42 689.13 560.38
  Q 685.49 558.11 682.83 554.85
  Q 682.63 554.61 682.65 554.28
  A 0.76 0.70 -62.3 0 0 682.52 553.80
  Q 676.72 545.31 674.68 538.56
  Q 673.27 533.91 670.97 530.16
  Q 670.15 528.82 669.56 527.45
  Q 668.85 525.83 668.16 524.22
  Q 668.13 524.13 668.04 524.08
  Q 667.93 524.00 667.81 523.93
  Q 667.73 523.88 667.68 523.79
  L 664.74 518.13
  A 0.69 0.69 0.0 0 0 663.59 518.02
  Q 662.74 519.09 661.40 519.45
  A 0.25 0.25 0.0 0 0 661.50 519.94
  Q 662.18 519.84 662.85 520.17
  Q 663.46 520.46 662.80 520.61
  Q 660.24 521.17 659.46 517.84
  Q 659.02 515.96 660.30 514.81
  Q 660.39 514.73 660.33 514.62
  Q 660.29 514.56 660.23 514.51
  Q 660.03 514.35 660.28 514.32
  Q 660.88 514.23 661.45 514.04
  Q 662.38 513.73 661.44 513.43
  Q 661.27 513.37 661.10 513.31
  Q 660.52 513.09 660.84 512.56
  Q 661.31 511.81 660.69 511.06
  Q 660.37 510.67 660.37 510.17
  L 660.37 509.79
  Q 660.36 509.24 659.85 509.04
  Q 659.36 508.86 659.37 508.36
  Q 659.38 507.68 658.91 507.18
  Q 657.30 505.51 656.87 503.43
  Q 656.61 502.16 655.42 501.51
  Q 655.08 501.32 655.15 500.94
  Q 655.28 500.17 654.67 499.70
  Q 654.53 499.60 654.35 499.62
  Q 654.30 499.63 654.25 499.64
  Q 653.58 499.83 654.11 499.37
  Q 654.23 499.27 654.30 499.14
  Q 654.39 498.99 654.39 498.83
  Q 654.40 496.54 653.50 496.32"
/>
<path stroke="#4ac8a3" d="
  M 495.45 613.22
  Q 495.67 611.46 494.14 611.01
  A 1.02 1.01 6.0 0 1 493.42 610.13
  L 493.31 608.92
  A 1.14 1.13 87.2 0 0 492.18 607.89
  L 491.39 607.89
  Q 490.83 607.89 490.65 607.35
  Q 490.26 606.13 490.77 604.93
  Q 490.96 604.50 490.72 604.11
  Q 489.09 601.44 486.58 599.68
  Q 486.32 599.50 486.28 599.19
  Q 486.26 599.05 486.21 598.92
  Q 486.12 598.69 485.95 598.52
  Q 483.97 596.55 481.75 594.81
  Q 481.50 594.62 481.23 594.77
  Q 480.92 594.94 480.78 594.61
  Q 479.60 591.79 476.83 589.61
  Q 474.46 587.74 472.46 585.60
  Q 469.62 582.57 466.80 579.71
  Q 466.46 579.37 465.97 579.32
  Q 465.77 579.30 465.59 579.38
  Q 465.07 579.60 464.62 579.26
  Q 463.86 578.67 462.98 578.25
  Q 461.94 577.75 461.36 577.30
  Q 456.72 573.70 452.32 570.12
  Q 450.43 568.59 448.75 566.69"
/>
<path stroke="#36d6e0" d="
  M 670.56 627.31
  Q 669.64 627.09 670.13 625.01
  Q 670.38 623.96 669.49 624.61
  Q 669.38 624.69 669.21 624.76
  Q 668.81 624.92 668.45 624.70
  Q 664.88 622.51 662.29 620.06
  C 661.80 619.59 660.77 619.47 660.18 619.00
  Q 658.33 617.52 656.57 615.94
  C 655.13 614.65 654.21 613.07 652.79 611.81
  Q 651.63 610.80 650.97 609.44
  Q 650.21 607.91 648.98 606.59
  Q 648.72 606.31 649.04 606.11
  L 649.45 605.84
  Q 649.74 605.65 649.99 605.89
  Q 650.80 606.63 651.88 605.87
  Q 653.11 605.00 652.29 603.72
  Q 650.18 600.45 647.92 597.22
  Q 647.87 597.14 647.87 597.04
  Q 647.87 596.99 647.88 596.94
  Q 647.91 596.73 647.78 596.56
  Q 643.65 591.07 639.82 586.54
  Q 634.95 580.77 631.73 574.15
  Q 631.65 573.99 631.50 573.89
  Q 631.23 573.72 630.95 573.54
  Q 630.55 573.28 630.38 572.83
  Q 629.90 571.60 629.32 570.42
  Q 628.86 569.49 627.90 568.93
  Q 626.99 568.41 626.01 568.08
  Q 625.84 568.03 625.92 567.88
  Q 625.94 567.83 625.99 567.82
  Q 626.32 567.81 626.13 567.53
  Q 625.73 566.92 625.03 566.77"
/>
<path stroke="#7761bf" d="
  M 911.87 472.71
  Q 911.31 472.52 910.98 471.96
  A 0.67 0.67 0.0 0 1 911.03 471.21
  Q 911.32 470.85 911.10 470.45
  Q 911.00 470.28 910.88 470.43
  Q 910.84 470.47 910.84 470.52
  Q 910.79 470.87 910.41 470.83
  Q 910.30 470.82 910.20 470.74
  Q 910.04 470.60 909.99 470.39
  Q 909.55 468.10 907.33 468.19
  Q 906.80 468.21 906.38 467.87
  Q 903.61 465.59 901.01 463.56
  Q 900.62 463.25 900.47 462.74
  Q 900.34 462.29 899.88 462.26
  Q 899.45 462.24 899.46 461.79
  Q 899.47 461.42 899.11 461.37
  Q 897.90 461.19 897.16 460.17
  Q 896.18 458.80 894.79 457.83
  Q 894.38 457.54 894.25 457.06
  Q 893.98 456.13 893.01 455.87
  Q 892.71 455.79 892.51 455.54
  Q 892.23 455.22 892.50 454.90
  Q 892.76 454.59 892.41 454.40
  Q 890.77 453.50 889.67 451.98
  Q 888.27 450.02 886.39 448.55
  Q 886.01 448.24 885.52 448.18
  Q 883.36 447.92 881.50 446.72
  Q 881.30 446.60 881.14 446.77
  Q 881.04 446.88 880.90 446.87
  Q 880.40 446.85 880.06 446.48
  Q 878.58 444.89 876.93 443.73
  Q 876.52 443.44 876.33 442.96
  Q 875.27 440.24 873.51 438.05
  Q 872.65 436.97 872.08 435.71
  C 871.16 433.69 869.37 432.45 868.01 430.77
  Q 866.36 428.75 864.53 426.96
  Q 864.17 426.60 864.13 426.09
  Q 864.12 425.86 864.13 425.63
  Q 864.13 425.62 864.13 425.62
  Q 864.12 425.62 864.12 425.62
  Q 864.06 425.63 864.07 425.69
  Q 864.18 427.48 864.10 429.29
  Q 864.05 430.27 863.62 429.39
  Q 863.57 429.29 863.59 429.18
  Q 863.71 428.56 863.19 428.13
  Q 863.15 428.10 863.10 428.13
  Q 862.47 428.51 862.59 427.76
  Q 862.78 426.59 862.62 425.84"
/>
<path stroke="#7761bf" d="
  M 805.29 399.20
  Q 800.33 394.24 795.78 388.97
  Q 795.09 388.16 794.08 387.97
  Q 793.87 387.93 793.87 387.72
  L 793.87 387.26
  Q 793.88 386.75 793.49 386.41
  Q 791.85 385.01 790.71 383.35
  Q 789.42 381.47 787.94 379.90
  Q 782.31 373.92 777.30 367.30
  Q 776.93 366.81 776.39 366.49
  Q 775.97 366.25 775.73 365.82
  Q 774.73 364.01 772.61 362.35"
/>
<path stroke="#6170c0" d="
  M 873.76 568.22
  L 873.09 568.47
  Q 872.50 568.70 872.58 568.07
  Q 872.66 567.40 872.19 566.90
  Q 871.51 566.17 870.82 565.72
  C 869.59 564.92 867.58 565.02 866.62 563.77
  Q 865.85 562.77 866.84 561.75
  Q 866.91 561.68 866.98 561.74
  Q 867.10 561.82 867.24 561.87
  A 0.11 0.10 10.4 0 0 867.38 561.78
  Q 867.42 560.99 867.89 560.26
  Q 868.30 559.61 867.53 559.61
  Q 867.37 559.61 867.21 559.56
  Q 866.75 559.42 866.46 559.02
  Q 865.06 557.05 864.14 554.81
  Q 863.22 552.58 861.66 550.75
  Q 859.25 547.94 857.30 544.49
  Q 855.67 541.61 853.56 538.60
  Q 851.64 535.86 850.22 532.81
  Q 848.73 529.64 845.61 526.90
  Q 844.77 526.16 844.91 524.89
  A 0.73 0.73 0.0 0 0 844.58 524.18
  Q 844.27 523.97 843.89 523.90
  Q 843.48 523.82 843.35 523.43
  Q 842.83 521.86 841.68 520.62
  Q 841.37 520.27 841.33 519.81
  C 841.26 518.99 840.96 518.07 840.18 517.66
  Q 839.08 517.09 837.81 516.60
  Q 837.43 516.46 837.24 516.10
  L 831.90 506.30
  Q 831.66 505.86 831.34 506.15
  Q 831.24 506.24 831.17 506.37
  Q 831.09 506.52 831.22 506.64
  Q 831.31 506.73 831.35 506.85
  Q 831.44 507.12 831.15 507.11
  Q 830.70 507.09 830.32 507.22"
/>
<path stroke="#5182c8" d="
  M 857.03 611.11
  Q 856.85 610.91 856.87 610.31
  Q 856.87 610.18 856.85 610.30
  Q 856.83 610.45 856.73 610.53
  Q 856.46 610.74 856.25 610.47
  Q 856.10 610.28 856.17 610.05
  Q 856.25 609.77 855.96 609.77
  Q 855.60 609.76 855.30 609.36
  Q 854.99 608.92 855.31 608.49
  Q 855.60 608.11 855.45 607.67
  Q 854.54 604.84 851.92 604.10
  Q 851.09 603.86 850.81 603.04
  Q 850.65 602.53 850.27 602.16
  Q 847.78 599.70 845.15 597.65
  Q 843.22 596.14 841.78 593.89
  Q 839.51 590.37 836.58 588.14
  A 1.83 1.77 9.4 0 1 835.96 587.30
  Q 835.15 584.95 832.83 583.72
  A 1.75 1.72 89.1 0 1 832.13 583.03
  L 828.66 576.90
  Q 828.41 576.47 827.99 576.21
  Q 827.57 575.95 827.42 575.49
  Q 826.62 573.14 824.87 571.33
  A 1.77 1.73 16.8 0 1 824.42 570.51
  C 824.06 568.93 823.75 567.24 823.03 565.76
  Q 822.52 564.74 822.25 563.51
  Q 822.20 563.30 822.36 563.15
  L 822.63 562.87
  Q 823.04 562.47 822.68 562.02
  Q 822.32 561.55 822.72 561.12
  Q 823.06 560.75 823.06 560.24
  Q 823.02 557.00 823.82 553.87
  Q 823.95 553.34 823.54 552.97
  Q 823.27 552.74 822.99 552.91
  Q 822.49 553.20 822.27 552.67
  Q 821.73 551.41 821.48 550.06
  Q 821.21 548.58 820.65 547.57
  Q 819.58 545.65 818.70 543.66
  Q 818.47 543.16 817.93 543.25
  Q 817.07 543.40 816.45 542.78"
/>
</g>
<path fill="#e04f8d" d="
  M 383.89 233.78
  Q 384.01 234.38 382.67 233.95
  Q 381.67 233.63 380.85 234.43
  Q 380.69 234.58 380.79 234.77
  Q 380.89 234.96 381.02 234.94
  Q 381.46 234.85 381.53 235.39
  Q 381.76 237.30 383.38 238.48
  Q 383.83 238.82 383.85 239.38
  L 383.90 241.35
  A 1.13 1.12 -66.9 0 0 384.19 242.08
  Q 385.13 243.10 385.06 244.44
  Q 384.97 246.23 385.73 247.50
  Q 386.20 248.30 386.48 249.14
  Q 387.58 252.40 388.90 255.53
  Q 389.10 255.98 389.58 256.07
  Q 390.51 256.23 391.47 256.07
  Q 392.13 255.96 392.41 256.56
  Q 394.28 260.58 395.82 264.72
  C 396.56 266.71 397.74 268.28 398.30 270.35
  Q 399.07 273.20 400.28 276.04
  A 1.39 1.39 0.0 0 0 401.02 276.78
  Q 401.60 277.03 401.72 277.65
  A 1.38 1.25 -68.6 0 0 401.84 277.97
  C 402.48 279.16 403.15 279.82 404.09 280.74
  Q 405.01 281.65 404.71 282.91
  Q 404.63 283.24 404.87 283.48
  Q 406.34 284.99 406.33 287.13
  Q 406.33 287.24 406.38 287.35
  Q 406.48 287.58 406.74 287.58
  Q 407.28 287.59 407.36 288.13
  Q 407.66 290.16 408.91 291.74
  Q 409.09 291.97 408.94 292.23
  Q 407.93 293.92 409.19 295.27
  Q 409.47 295.57 409.36 295.97
  Q 409.15 296.68 409.77 297.01
  Q 410.19 297.23 410.26 297.70
  Q 410.51 299.47 410.53 301.29
  Q 410.53 301.79 410.35 302.25
  Q 410.15 302.76 410.49 303.17
  Q 410.78 303.52 410.41 303.78
  Q 409.91 304.14 409.70 304.70
  A 0.32 0.32 0.0 0 0 410.11 305.11
  Q 410.65 304.92 410.66 305.48
  Q 410.67 305.63 410.77 305.74
  Q 410.97 305.95 411.07 305.84
  Q 411.37 305.55 411.70 305.79
  Q 413.31 306.93 413.40 308.20
  Q 395.11 298.02 372.75 294.70
  Q 354.87 292.03 338.90 293.36
  Q 337.20 292.43 340.47 292.38
  Q 340.63 292.38 340.74 292.27
  Q 340.78 292.22 340.84 292.20
  Q 341.43 292.01 340.82 292.11
  Q 340.48 292.17 340.15 292.04
  Q 339.83 291.90 339.64 291.63
  Q 339.02 290.74 338.60 289.58
  Q 338.22 288.50 337.76 287.43
  Q 336.32 284.08 335.00 280.35
  Q 333.37 275.79 332.20 273.28
  Q 330.81 270.30 329.37 267.41
  Q 328.05 264.76 326.03 261.73
  Q 323.16 257.43 322.34 254.26
  Q 320.75 248.02 317.15 243.75
  Q 316.66 243.16 315.98 242.85
  C 313.45 241.67 314.49 239.78 313.40 237.80
  Q 313.21 237.46 312.88 237.66
  Q 312.74 237.75 312.59 237.78
  Q 312.25 237.86 312.17 237.52
  Q 312.14 237.40 312.12 237.25
  Q 348.07 229.64 383.89 233.78
  Z"
/>
<path fill="#f34d83" d="
  M 383.89 233.78
  Q 411.00 237.15 435.67 247.80
  C 451.37 254.58 465.52 264.18 477.83 275.87
  A 1.17 1.16 -48.3 0 1 477.92 277.46
  Q 476.00 279.76 473.97 281.97
  Q 458.54 298.70 444.21 314.85
  Q 439.79 319.83 435.16 324.27
  A 1.15 1.14 46.9 0 1 433.53 324.21
  Q 424.91 314.83 413.40 308.20
  Q 413.31 306.93 411.70 305.79
  Q 411.37 305.55 411.07 305.84
  Q 410.97 305.95 410.77 305.74
  Q 410.67 305.63 410.66 305.48
  Q 410.65 304.92 410.11 305.11
  A 0.32 0.32 0.0 0 1 409.70 304.70
  Q 409.91 304.14 410.41 303.78
  Q 410.78 303.52 410.49 303.17
  Q 410.15 302.76 410.35 302.25
  Q 410.53 301.79 410.53 301.29
  Q 410.51 299.47 410.26 297.70
  Q 410.19 297.23 409.77 297.01
  Q 409.15 296.68 409.36 295.97
  Q 409.47 295.57 409.19 295.27
  Q 407.93 293.92 408.94 292.23
  Q 409.09 291.97 408.91 291.74
  Q 407.66 290.16 407.36 288.13
  Q 407.28 287.59 406.74 287.58
  Q 406.48 287.58 406.38 287.35
  Q 406.33 287.24 406.33 287.13
  Q 406.34 284.99 404.87 283.48
  Q 404.63 283.24 404.71 282.91
  Q 405.01 281.65 404.09 280.74
  C 403.15 279.82 402.48 279.16 401.84 277.97
  A 1.38 1.25 -68.6 0 1 401.72 277.65
  Q 401.60 277.03 401.02 276.78
  A 1.39 1.39 0.0 0 1 400.28 276.04
  Q 399.07 273.20 398.30 270.35
  C 397.74 268.28 396.56 266.71 395.82 264.72
  Q 394.28 260.58 392.41 256.56
  Q 392.13 255.96 391.47 256.07
  Q 390.51 256.23 389.58 256.07
  Q 389.10 255.98 388.90 255.53
  Q 387.58 252.40 386.48 249.14
  Q 386.20 248.30 385.73 247.50
  Q 384.97 246.23 385.06 244.44
  Q 385.13 243.10 384.19 242.08
  A 1.13 1.12 -66.9 0 1 383.90 241.35
  L 383.85 239.38
  Q 383.83 238.82 383.38 238.48
  Q 381.76 237.30 381.53 235.39
  Q 381.46 234.85 381.02 234.94
  Q 380.89 234.96 380.79 234.77
  Q 380.69 234.58 380.85 234.43
  Q 381.67 233.63 382.67 233.95
  Q 384.01 234.38 383.89 233.78
  Z"
/>
<path fill="#ae5ba9" d="
  M 312.12 237.25
  Q 312.14 237.40 312.17 237.52
  Q 312.25 237.86 312.59 237.78
  Q 312.74 237.75 312.88 237.66
  Q 313.21 237.46 313.40 237.80
  C 314.49 239.78 313.45 241.67 315.98 242.85
  Q 316.66 243.16 317.15 243.75
  Q 320.75 248.02 322.34 254.26
  Q 323.16 257.43 326.03 261.73
  Q 328.05 264.76 329.37 267.41
  Q 330.81 270.30 332.20 273.28
  Q 333.37 275.79 335.00 280.35
  Q 336.32 284.08 337.76 287.43
  Q 338.22 288.50 338.60 289.58
  Q 339.02 290.74 339.64 291.63
  Q 339.83 291.90 340.15 292.04
  Q 340.48 292.17 340.82 292.11
  Q 341.43 292.01 340.84 292.20
  Q 340.78 292.22 340.74 292.27
  Q 340.63 292.38 340.47 292.38
  Q 337.20 292.43 338.90 293.36
  Q 298.89 297.22 263.56 317.94
  Q 262.83 313.74 260.16 311.83
  Q 260.04 311.74 260.01 311.61
  Q 259.94 311.38 260.19 311.37
  A 0.18 0.18 0.0 0 0 260.35 311.11
  Q 259.25 308.71 257.76 305.83
  Q 256.71 303.80 256.29 301.92
  Q 256.15 301.29 255.57 300.99
  Q 253.70 300.02 253.50 297.00
  Q 253.46 296.43 253.05 296.04
  C 251.86 294.92 250.93 294.18 250.24 292.59
  Q 243.99 278.34 236.76 264.66
  Q 271.92 245.57 312.12 237.25
  Z"
/>
<path fill="#845ec4" d="
  M 236.76 264.66
  Q 243.99 278.34 250.24 292.59
  C 250.93 294.18 251.86 294.92 253.05 296.04
  Q 253.46 296.43 253.50 297.00
  Q 253.70 300.02 255.57 300.99
  Q 256.15 301.29 256.29 301.92
  Q 256.71 303.80 257.76 305.83
  Q 259.25 308.71 260.35 311.11
  A 0.18 0.18 0.0 0 1 260.19 311.37
  Q 259.94 311.38 260.01 311.61
  Q 260.04 311.74 260.16 311.83
  Q 262.83 313.74 263.56 317.94
  Q 227.17 339.31 199.66 372.29
  Q 199.78 369.47 198.50 367.41
  Q 197.41 365.64 197.07 364.66
  Q 196.58 363.22 195.90 361.72
  Q 195.72 361.32 195.35 361.08
  Q 194.37 360.44 194.65 359.05
  A 0.74 0.73 -89.9 0 1 195.21 358.48
  L 197.29 357.99
  A 0.65 0.64 -26.0 0 0 197.65 356.96
  Q 195.60 354.37 194.51 351.20
  Q 193.68 348.80 192.58 346.38
  Q 192.54 346.31 192.46 346.31
  Q 192.29 346.31 192.25 346.43
  Q 192.05 347.02 192.02 346.40
  Q 191.92 344.75 191.87 342.99
  Q 191.85 342.19 191.06 342.15
  Q 190.49 342.13 190.14 341.67
  Q 188.88 339.95 186.74 339.10
  Q 185.98 338.80 186.56 338.22
  L 186.74 338.03
  A 0.74 0.74 0.0 0 0 186.82 337.08
  Q 185.51 335.24 183.74 333.74
  Q 183.41 333.46 183.35 333.03
  L 183.07 331.03
  Q 183.00 330.56 182.63 330.24
  Q 181.02 328.91 180.63 326.72
  Q 180.54 326.24 180.14 325.97
  Q 179.29 325.40 179.44 324.49
  Q 179.67 323.11 179.05 322.30
  A 0.77 0.75 36.3 0 1 178.93 321.56
  Q 179.08 321.12 179.07 320.64
  A 1.68 1.63 26.4 0 0 178.75 319.73
  Q 177.83 318.48 177.65 316.25
  Q 177.49 314.18 175.63 308.02
  Q 180.91 302.97 188.92 296.42
  Q 211.07 278.27 236.76 264.66
  Z"
/>
<path fill="#6963ba" d="
  M 175.63 308.02
  Q 177.49 314.18 177.65 316.25
  Q 177.83 318.48 178.75 319.73
  A 1.68 1.63 26.4 0 1 179.07 320.64
  Q 179.08 321.12 178.93 321.56
  A 0.77 0.75 36.3 0 0 179.05 322.30
  Q 179.67 323.11 179.44 324.49
  Q 179.29 325.40 180.14 325.97
  Q 180.54 326.24 180.63 326.72
  Q 181.02 328.91 182.63 330.24
  Q 183.00 330.56 183.07 331.03
  L 183.35 333.03
  Q 183.41 333.46 183.74 333.74
  Q 185.51 335.24 186.82 337.08
  A 0.74 0.74 0.0 0 1 186.74 338.03
  L 186.56 338.22
  Q 185.98 338.80 186.74 339.10
  Q 188.88 339.95 190.14 341.67
  Q 190.49 342.13 191.06 342.15
  Q 191.85 342.19 191.87 342.99
  Q 191.92 344.75 192.02 346.40
  Q 192.05 347.02 192.25 346.43
  Q 192.29 346.31 192.46 346.31
  Q 192.54 346.31 192.58 346.38
  Q 193.68 348.80 194.51 351.20
  Q 195.60 354.37 197.65 356.96
  A 0.65 0.64 -26.0 0 1 197.29 357.99
  L 195.21 358.48
  A 0.74 0.73 -89.9 0 0 194.65 359.05
  Q 194.37 360.44 195.35 361.08
  Q 195.72 361.32 195.90 361.72
  Q 196.58 363.22 197.07 364.66
  Q 197.41 365.64 198.50 367.41
  Q 199.78 369.47 199.66 372.29
  Q 177.76 399.27 164.52 431.39
  Q 160.81 434.34 157.41 436.94
  Q 130.82 457.24 103.14 476.02
  Q 100.50 477.81 96.87 479.97
  Q 93.83 481.78 90.54 483.84
  Q 91.59 455.68 100.05 429.53
  Q 116.62 378.28 150.93 334.94
  Q 163.18 319.48 175.63 308.02
  Z"
/>
<path fill="#94cc4d" d="
  M 492.48 429.81
  Q 491.85 429.94 491.86 429.10
  Q 491.87 428.29 491.37 428.93
  Q 491.27 429.06 491.12 429.09
  Q 490.63 429.18 490.23 428.90
  Q 489.23 428.20 488.02 428.61
  Q 487.56 428.77 487.09 428.61
  L 484.70 427.82
  Q 484.26 427.67 483.79 427.67
  Q 482.29 427.67 480.81 427.13
  Q 480.65 427.07 480.54 427.20
  Q 480.29 427.50 479.98 427.25
  Q 478.08 425.74 477.37 425.66
  Q 474.88 425.40 472.33 424.90
  C 470.44 424.52 468.63 425.14 466.87 424.10
  Q 466.42 423.83 465.91 423.98
  Q 464.06 424.49 462.39 423.43
  Q 462.29 423.37 462.23 423.47
  Q 462.17 423.59 462.06 423.67
  Q 461.93 423.77 461.76 423.75
  L 459.07 423.57
  Q 458.50 423.54 458.05 423.86
  Q 457.32 424.39 456.56 423.97
  A 1.05 1.05 0.0 0 0 455.72 423.88
  L 454.87 424.16
  Q 454.21 424.37 454.26 423.67
  Q 454.30 423.14 453.97 422.89
  Q 453.51 422.55 453.45 423.12
  Q 453.30 424.38 452.69 424.01
  Q 455.41 402.79 451.42 381.75
  C 451.08 379.97 451.97 379.02 453.28 378.08
  Q 465.40 369.40 477.57 360.75
  C 494.20 348.93 511.59 339.25 531.64 336.49
  Q 532.45 336.38 532.17 337.15
  Q 531.50 338.93 530.79 340.66
  Q 520.36 366.07 509.01 391.83
  C 503.51 404.30 498.18 417.23 492.48 429.81
  Z"
/>
<path fill="#37cbda" d="
  M 604.95 354.05
  Q 604.62 354.66 604.63 355.10
  Q 604.65 355.61 604.31 355.98
  Q 604.02 356.31 603.57 356.40
  A 0.48 0.48 0.0 0 0 603.22 357.05
  Q 603.41 357.51 603.12 357.95
  Q 602.84 358.36 602.40 358.55
  Q 600.59 359.32 599.96 361.24
  Q 599.93 361.33 599.93 361.24
  Q 599.93 361.01 600.14 361.01
  A 0.15 0.15 0.0 0 1 600.29 361.19
  Q 600.25 361.46 600.52 361.44
  A 0.20 0.19 -88.4 0 0 600.71 361.25
  Q 600.71 360.79 601.07 361.09
  A 0.53 0.53 0.0 0 1 601.02 361.93
  Q 599.03 363.28 600.62 365.41
  Q 600.78 365.63 601.03 365.73
  Q 601.35 365.86 601.69 365.91
  Q 602.21 365.97 602.47 366.43
  Q 603.43 368.14 605.27 368.48
  Q 605.52 368.53 605.66 368.34
  Q 605.70 368.30 605.68 368.25
  Q 605.51 367.57 606.10 367.96
  Q 608.00 369.20 608.59 370.39
  Q 608.75 370.71 608.70 370.35
  Q 608.65 369.92 609.16 369.77
  Q 610.01 369.53 610.28 370.38
  L 610.64 371.53
  A 0.21 0.20 -20.6 0 0 610.91 371.65
  Q 611.04 371.60 611.17 371.64
  Q 611.47 371.73 611.66 371.97
  Q 612.71 373.27 613.92 374.60
  Q 614.03 374.71 614.08 374.85
  Q 614.13 375.00 614.10 375.16
  Q 613.96 375.87 614.65 376.12
  Q 615.92 376.56 616.96 377.43
  Q 617.45 377.84 618.07 377.77
  Q 619.54 377.60 620.66 378.41
  Q 622.33 379.61 622.74 381.36
  Q 622.84 381.75 623.18 381.98
  Q 624.14 382.60 624.39 383.65
  Q 624.47 384.03 624.85 383.94
  Q 626.02 383.66 626.96 384.29
  Q 628.02 385.02 629.39 385.04
  Q 629.89 385.05 630.05 385.52
  L 630.39 386.49
  Q 630.55 386.95 630.86 387.31
  Q 631.62 388.20 631.56 389.41
  A 2.28 2.28 0.0 0 0 631.79 390.53
  L 632.61 392.16
  Q 632.80 392.55 632.63 392.95
  Q 632.36 393.55 632.61 394.19
  A 0.83 0.82 -12.9 0 1 631.90 395.31
  Q 631.29 395.36 631.33 395.98
  Q 631.36 396.38 631.00 396.20
  Q 630.83 396.11 630.72 395.93
  Q 630.61 395.76 630.62 395.96
  Q 630.62 396.06 630.55 396.12
  Q 630.13 396.49 630.70 396.55
  Q 631.72 396.66 632.64 396.78
  Q 635.78 397.21 632.67 397.81
  Q 631.13 398.11 627.99 397.92
  Q 626.29 397.82 626.78 398.56
  C 617.10 398.59 607.48 398.81 598.67 403.37
  C 583.27 411.34 574.61 424.29 568.03 439.78
  Q 556.70 466.48 545.45 493.23
  Q 545.23 492.45 544.61 492.66
  A 0.53 0.49 2.2 0 0 544.33 492.90
  Q 544.05 493.47 544.63 493.38
  Q 544.39 493.33 544.19 493.41
  Q 543.88 493.52 543.63 493.31
  L 540.23 490.40
  Q 539.86 490.08 539.37 490.13
  Q 538.64 490.21 538.25 489.65
  Q 537.96 489.24 537.51 489.04
  Q 536.23 488.45 534.96 487.92
  Q 533.72 487.39 532.41 487.16
  Q 529.19 486.61 526.07 485.44
  C 525.17 485.10 523.95 485.26 523.02 484.94
  Q 516.56 482.72 510.44 480.94
  Q 510.11 480.84 509.87 480.60
  Q 509.48 480.22 509.05 480.47
  Q 508.55 480.76 508.24 480.27
  Q 508.06 479.99 507.74 479.88
  Q 502.28 478.08 498.62 477.39
  Q 496.77 477.04 494.81 477.93
  Q 494.34 478.15 493.82 478.12
  Q 490.81 477.98 488.30 479.37
  Q 487.79 479.66 487.42 479.21
  Q 487.19 478.93 486.77 478.74
  Q 486.62 478.48 486.79 478.07
  Q 501.58 443.17 517.71 406.40
  C 524.46 391.01 530.50 374.70 538.95 360.00
  C 543.70 351.74 550.71 345.55 559.53 341.75
  Q 565.39 339.23 574.11 338.89
  Q 584.50 338.48 593.81 339.05
  A 0.74 0.74 0.0 0 1 594.41 340.14
  L 576.14 373.60
  Q 575.37 375.01 576.83 374.33
  Q 578.63 373.50 580.31 372.07
  Q 591.96 362.16 604.95 354.05
  Z"
/>
<path fill="#36bde6" d="
  M 747.60 384.55
  Q 751.70 400.92 748.19 418.74
  Q 744.45 437.66 738.36 456.34
  L 694.86 565.24
  Q 695.14 564.64 694.02 564.45
  Q 693.70 564.39 693.99 564.23
  L 694.33 564.05
  A 0.42 0.42 0.0 0 0 694.43 563.38
  L 692.95 561.94
  Q 692.54 561.54 691.99 561.68
  Q 690.95 561.95 690.23 561.33
  Q 689.18 560.42 689.13 560.38
  Q 685.49 558.11 682.83 554.85
  Q 682.63 554.61 682.65 554.28
  A 0.76 0.70 -62.3 0 0 682.52 553.80
  Q 676.72 545.31 674.68 538.56
  Q 673.27 533.91 670.97 530.16
  Q 670.15 528.82 669.56 527.45
  Q 668.85 525.83 668.16 524.22
  Q 668.13 524.13 668.04 524.08
  Q 667.93 524.00 667.81 523.93
  Q 667.73 523.88 667.68 523.79
  L 664.74 518.13
  A 0.69 0.69 0.0 0 0 663.59 518.02
  Q 662.74 519.09 661.40 519.45
  A 0.25 0.25 0.0 0 0 661.50 519.94
  Q 662.18 519.84 662.85 520.17
  Q 663.46 520.46 662.80 520.61
  Q 660.24 521.17 659.46 517.84
  Q 659.02 515.96 660.30 514.81
  Q 660.39 514.73 660.33 514.62
  Q 660.29 514.56 660.23 514.51
  Q 660.03 514.35 660.28 514.32
  Q 660.88 514.23 661.45 514.04
  Q 662.38 513.73 661.44 513.43
  Q 661.27 513.37 661.10 513.31
  Q 660.52 513.09 660.84 512.56
  Q 661.31 511.81 660.69 511.06
  Q 660.37 510.67 660.37 510.17
  L 660.37 509.79
  Q 660.36 509.24 659.85 509.04
  Q 659.36 508.86 659.37 508.36
  Q 659.38 507.68 658.91 507.18
  Q 657.30 505.51 656.87 503.43
  Q 656.61 502.16 655.42 501.51
  Q 655.08 501.32 655.15 500.94
  Q 655.28 500.17 654.67 499.70
  Q 654.53 499.60 654.35 499.62
  Q 654.30 499.63 654.25 499.64
  Q 653.58 499.83 654.11 499.37
  Q 654.23 499.27 654.30 499.14
  Q 654.39 498.99 654.39 498.83
  Q 654.40 496.54 653.50 496.32
  Q 667.35 461.50 682.22 426.98
  C 684.08 422.67 685.12 417.00 683.79 412.27
  C 680.62 401.10 670.43 398.49 660.00 398.48
  Q 643.40 398.47 626.78 398.56
  Q 626.29 397.82 627.99 397.92
  Q 631.13 398.11 632.67 397.81
  Q 635.78 397.21 632.64 396.78
  Q 631.72 396.66 630.70 396.55
  Q 630.13 396.49 630.55 396.12
  Q 630.62 396.06 630.62 395.96
  Q 630.61 395.76 630.72 395.93
  Q 630.83 396.11 631.00 396.20
  Q 631.36 396.38 631.33 395.98
  Q 631.29 395.36 631.90 395.31
  A 0.83 0.82 -12.9 0 0 632.61 394.19
  Q 632.36 393.55 632.63 392.95
  Q 632.80 392.55 632.61 392.16
  L 631.79 390.53
  A 2.28 2.28 0.0 0 1 631.56 389.41
  Q 631.62 388.20 630.86 387.31
  Q 630.55 386.95 630.39 386.49
  L 630.05 385.52
  Q 629.89 385.05 629.39 385.04
  Q 628.02 385.02 626.96 384.29
  Q 626.02 383.66 624.85 383.94
  Q 624.47 384.03 624.39 383.65
  Q 624.14 382.60 623.18 381.98
  Q 622.84 381.75 622.74 381.36
  Q 622.33 379.61 620.66 378.41
  Q 619.54 377.60 618.07 377.77
  Q 617.45 377.84 616.96 377.43
  Q 615.92 376.56 614.65 376.12
  Q 613.96 375.87 614.10 375.16
  Q 614.13 375.00 614.08 374.85
  Q 614.03 374.71 613.92 374.60
  Q 612.71 373.27 611.66 371.97
  Q 611.47 371.73 611.17 371.64
  Q 611.04 371.60 610.91 371.65
  A 0.21 0.20 -20.6 0 1 610.64 371.53
  L 610.28 370.38
  Q 610.01 369.53 609.16 369.77
  Q 608.65 369.92 608.70 370.35
  Q 608.75 370.71 608.59 370.39
  Q 608.00 369.20 606.10 367.96
  Q 605.51 367.57 605.68 368.25
  Q 605.70 368.30 605.66 368.34
  Q 605.52 368.53 605.27 368.48
  Q 603.43 368.14 602.47 366.43
  Q 602.21 365.97 601.69 365.91
  Q 601.35 365.86 601.03 365.73
  Q 600.78 365.63 600.62 365.41
  Q 599.03 363.28 601.02 361.93
  A 0.53 0.53 0.0 0 0 601.07 361.09
  Q 600.71 360.79 600.71 361.25
  A 0.20 0.19 -88.4 0 1 600.52 361.44
  Q 600.25 361.46 600.29 361.19
  A 0.15 0.15 0.0 0 0 600.14 361.01
  Q 599.93 361.01 599.93 361.24
  Q 599.93 361.33 599.96 361.24
  Q 600.59 359.32 602.40 358.55
  Q 602.84 358.36 603.12 357.95
  Q 603.41 357.51 603.22 357.05
  A 0.48 0.48 0.0 0 1 603.57 356.40
  Q 604.02 356.31 604.31 355.98
  Q 604.65 355.61 604.63 355.10
  Q 604.62 354.66 604.95 354.05
  C 617.77 346.04 631.51 340.07 646.64 339.72
  Q 675.55 339.05 692.78 339.57
  Q 731.94 340.75 745.10 377.37
  Q 746.15 380.31 747.60 384.55
  Z"
/>
<path fill="#845ec4" d="
  M 911.87 472.71
  Q 911.31 472.52 910.98 471.96
  A 0.67 0.67 0.0 0 1 911.03 471.21
  Q 911.32 470.85 911.10 470.45
  Q 911.00 470.28 910.88 470.43
  Q 910.84 470.47 910.84 470.52
  Q 910.79 470.87 910.41 470.83
  Q 910.30 470.82 910.20 470.74
  Q 910.04 470.60 909.99 470.39
  Q 909.55 468.10 907.33 468.19
  Q 906.80 468.21 906.38 467.87
  Q 903.61 465.59 901.01 463.56
  Q 900.62 463.25 900.47 462.74
  Q 900.34 462.29 899.88 462.26
  Q 899.45 462.24 899.46 461.79
  Q 899.47 461.42 899.11 461.37
  Q 897.90 461.19 897.16 460.17
  Q 896.18 458.80 894.79 457.83
  Q 894.38 457.54 894.25 457.06
  Q 893.98 456.13 893.01 455.87
  Q 892.71 455.79 892.51 455.54
  Q 892.23 455.22 892.50 454.90
  Q 892.76 454.59 892.41 454.40
  Q 890.77 453.50 889.67 451.98
  Q 888.27 450.02 886.39 448.55
  Q 886.01 448.24 885.52 448.18
  Q 883.36 447.92 881.50 446.72
  Q 881.30 446.60 881.14 446.77
  Q 881.04 446.88 880.90 446.87
  Q 880.40 446.85 880.06 446.48
  Q 878.58 444.89 876.93 443.73
  Q 876.52 443.44 876.33 442.96
  Q 875.27 440.24 873.51 438.05
  Q 872.65 436.97 872.08 435.71
  C 871.16 433.69 869.37 432.45 868.01 430.77
  Q 866.36 428.75 864.53 426.96
  Q 864.17 426.60 864.13 426.09
  Q 864.12 425.86 864.13 425.63
  Q 864.13 425.62 864.13 425.62
  Q 864.12 425.62 864.12 425.62
  Q 864.06 425.63 864.07 425.69
  Q 864.18 427.48 864.10 429.29
  Q 864.05 430.27 863.62 429.39
  Q 863.57 429.29 863.59 429.18
  Q 863.71 428.56 863.19 428.13
  Q 863.15 428.10 863.10 428.13
  Q 862.47 428.51 862.59 427.76
  Q 862.78 426.59 862.62 425.84
  Q 863.72 421.48 864.08 417.26
  C 864.78 409.01 860.09 402.47 852.46 399.89
  Q 848.90 398.69 842.52 398.65
  Q 827.45 398.56 812.50 398.82
  Q 808.90 398.88 805.29 399.20
  Q 800.33 394.24 795.78 388.97
  Q 795.09 388.16 794.08 387.97
  Q 793.87 387.93 793.87 387.72
  L 793.87 387.26
  Q 793.88 386.75 793.49 386.41
  Q 791.85 385.01 790.71 383.35
  Q 789.42 381.47 787.94 379.90
  Q 782.31 373.92 777.30 367.30
  Q 776.93 366.81 776.39 366.49
  Q 775.97 366.25 775.73 365.82
  Q 774.73 364.01 772.61 362.35
  Q 801.69 341.23 837.25 339.72
  Q 857.14 338.88 876.88 339.39
  C 901.68 340.03 922.17 352.98 931.22 376.59
  C 937.84 393.86 936.71 412.00 929.61 428.79
  Q 920.39 450.58 911.87 472.71
  Z"
/>
<path fill="#6963ba" d="
  M 772.61 362.35
  Q 774.73 364.01 775.73 365.82
  Q 775.97 366.25 776.39 366.49
  Q 776.93 366.81 777.30 367.30
  Q 782.31 373.92 787.94 379.90
  Q 789.42 381.47 790.71 383.35
  Q 791.85 385.01 793.49 386.41
  Q 793.88 386.75 793.87 387.26
  L 793.87 387.72
  Q 793.87 387.93 794.08 387.97
  Q 795.09 388.16 795.78 388.97
  Q 800.33 394.24 805.29 399.20
  Q 795.19 400.42 784.66 406.17
  Q 769.12 414.65 757.65 428.16
  Q 750.72 436.33 746.61 443.12
  Q 740.74 452.82 738.36 456.34
  Q 744.45 437.66 748.19 418.74
  Q 751.70 400.92 747.60 384.55
  Q 759.40 371.82 772.61 362.35
  Z"
/>
<path fill="#b4d243" d="
  M 492.48 429.81
  L 439.04 554.29
  L 438.96 553.76
  Q 438.88 553.22 438.43 553.54
  Q 436.89 554.62 435.59 553.15
  A 0.88 0.86 35.9 0 1 435.44 552.27
  Q 435.83 551.29 436.63 550.62
  Q 436.89 550.41 436.64 550.19
  Q 436.50 550.08 436.34 550.16
  A 0.36 0.36 0.0 0 1 435.81 549.82
  Q 435.83 549.38 436.24 549.29
  Q 436.55 549.23 436.30 549.05
  Q 435.49 548.45 435.10 547.49
  Q 434.92 547.05 434.52 546.81
  Q 432.44 545.53 430.72 543.80
  Q 430.47 543.55 430.14 543.45
  Q 429.67 543.31 429.64 542.80
  Q 429.60 542.31 429.38 542.75
  Q 429.25 543.02 428.99 543.12
  A 0.28 0.27 4.4 0 1 428.65 542.73
  Q 428.80 542.47 428.53 542.37
  Q 428.22 542.24 428.23 542.58
  Q 428.25 542.98 428.13 543.35
  Q 427.92 543.97 427.71 543.35
  Q 427.50 542.74 426.93 542.43
  Q 424.41 541.04 422.14 539.58
  Q 421.34 539.06 421.20 538.19
  Q 421.12 537.68 420.61 537.67
  Q 419.76 537.65 418.96 537.34
  Q 415.13 535.83 411.78 534.18
  Q 408.53 532.59 404.82 531.78
  Q 404.34 531.67 404.05 531.28
  Q 403.70 530.83 403.21 530.52
  Q 402.70 530.20 401.70 530.29
  Q 399.62 530.47 398.89 529.23
  C 426.63 499.85 446.55 463.96 452.69 424.01
  Q 453.30 424.38 453.45 423.12
  Q 453.51 422.55 453.97 422.89
  Q 454.30 423.14 454.26 423.67
  Q 454.21 424.37 454.87 424.16
  L 455.72 423.88
  A 1.05 1.05 0.0 0 1 456.56 423.97
  Q 457.32 424.39 458.05 423.86
  Q 458.50 423.54 459.07 423.57
  L 461.76 423.75
  Q 461.93 423.77 462.06 423.67
  Q 462.17 423.59 462.23 423.47
  Q 462.29 423.37 462.39 423.43
  Q 464.06 424.49 465.91 423.98
  Q 466.42 423.83 466.87 424.10
  C 468.63 425.14 470.44 424.52 472.33 424.90
  Q 474.88 425.40 477.37 425.66
  Q 478.08 425.74 479.98 427.25
  Q 480.29 427.50 480.54 427.20
  Q 480.65 427.07 480.81 427.13
  Q 482.29 427.67 483.79 427.67
  Q 484.26 427.67 484.70 427.82
  L 487.09 428.61
  Q 487.56 428.77 488.02 428.61
  Q 489.23 428.20 490.23 428.90
  Q 490.63 429.18 491.12 429.09
  Q 491.27 429.06 491.37 428.93
  Q 491.87 428.29 491.86 429.10
  Q 491.85 429.94 492.48 429.81
  Z"
/>
<path fill="#6963ba" d="
  M 911.87 472.71
  L 873.76 568.22
  L 873.09 568.47
  Q 872.50 568.70 872.58 568.07
  Q 872.66 567.40 872.19 566.90
  Q 871.51 566.17 870.82 565.72
  C 869.59 564.92 867.58 565.02 866.62 563.77
  Q 865.85 562.77 866.84 561.75
  Q 866.91 561.68 866.98 561.74
  Q 867.10 561.82 867.24 561.87
  A 0.11 0.10 10.4 0 0 867.38 561.78
  Q 867.42 560.99 867.89 560.26
  Q 868.30 559.61 867.53 559.61
  Q 867.37 559.61 867.21 559.56
  Q 866.75 559.42 866.46 559.02
  Q 865.06 557.05 864.14 554.81
  Q 863.22 552.58 861.66 550.75
  Q 859.25 547.94 857.30 544.49
  Q 855.67 541.61 853.56 538.60
  Q 851.64 535.86 850.22 532.81
  Q 848.73 529.64 845.61 526.90
  Q 844.77 526.16 844.91 524.89
  A 0.73 0.73 0.0 0 0 844.58 524.18
  Q 844.27 523.97 843.89 523.90
  Q 843.48 523.82 843.35 523.43
  Q 842.83 521.86 841.68 520.62
  Q 841.37 520.27 841.33 519.81
  C 841.26 518.99 840.96 518.07 840.18 517.66
  Q 839.08 517.09 837.81 516.60
  Q 837.43 516.46 837.24 516.10
  L 831.90 506.30
  Q 831.66 505.86 831.34 506.15
  Q 831.24 506.24 831.17 506.37
  Q 831.09 506.52 831.22 506.64
  Q 831.31 506.73 831.35 506.85
  Q 831.44 507.12 831.15 507.11
  Q 830.70 507.09 830.32 507.22
  L 862.62 425.84
  Q 862.78 426.59 862.59 427.76
  Q 862.47 428.51 863.10 428.13
  Q 863.15 428.10 863.19 428.13
  Q 863.71 428.56 863.59 429.18
  Q 863.57 429.29 863.62 429.39
  Q 864.05 430.27 864.10 429.29
  Q 864.18 427.48 864.07 425.69
  Q 864.06 425.63 864.12 425.62
  Q 864.12 425.62 864.13 425.62
  Q 864.13 425.62 864.13 425.63
  Q 864.12 425.86 864.13 426.09
  Q 864.17 426.60 864.53 426.96
  Q 866.36 428.75 868.01 430.77
  C 869.37 432.45 871.16 433.69 872.08 435.71
  Q 872.65 436.97 873.51 438.05
  Q 875.27 440.24 876.33 442.96
  Q 876.52 443.44 876.93 443.73
  Q 878.58 444.89 880.06 446.48
  Q 880.40 446.85 880.90 446.87
  Q 881.04 446.88 881.14 446.77
  Q 881.30 446.60 881.50 446.72
  Q 883.36 447.92 885.52 448.18
  Q 886.01 448.24 886.39 448.55
  Q 888.27 450.02 889.67 451.98
  Q 890.77 453.50 892.41 454.40
  Q 892.76 454.59 892.50 454.90
  Q 892.23 455.22 892.51 455.54
  Q 892.71 455.79 893.01 455.87
  Q 893.98 456.13 894.25 457.06
  Q 894.38 457.54 894.79 457.83
  Q 896.18 458.80 897.16 460.17
  Q 897.90 461.19 899.11 461.37
  Q 899.47 461.42 899.46 461.79
  Q 899.45 462.24 899.88 462.26
  Q 900.34 462.29 900.47 462.74
  Q 900.62 463.25 901.01 463.56
  Q 903.61 465.59 906.38 467.87
  Q 906.80 468.21 907.33 468.19
  Q 909.55 468.10 909.99 470.39
  Q 910.04 470.60 910.20 470.74
  Q 910.30 470.82 910.41 470.83
  Q 910.79 470.87 910.84 470.52
  Q 910.84 470.47 910.88 470.43
  Q 911.00 470.28 911.10 470.45
  Q 911.32 470.85 911.03 471.21
  A 0.67 0.67 0.0 0 0 910.98 471.96
  Q 911.31 472.52 911.87 472.71
  Z"
/>
<path fill="#eb4666" d="
  M 164.52 431.39
  Q 160.74 441.61 158.07 451.75
  Q 147.80 490.87 163.19 527.81
  Q 162.57 529.36 162.02 530.72
  Q 161.61 531.74 162.39 532.44
  A 0.83 0.83 0.0 0 1 162.47 533.58
  Q 162.22 533.88 162.27 534.26
  Q 162.34 534.83 162.01 535.33
  Q 161.41 536.21 161.14 537.20
  Q 160.87 538.23 159.99 539.21
  Q 157.87 541.56 156.89 544.60
  Q 155.43 549.11 152.93 553.28
  A 1.81 1.79 -29.7 0 0 152.67 554.21
  Q 152.66 555.61 152.14 556.83
  Q 149.91 562.02 148.77 567.41
  Q 148.14 570.35 146.34 572.49
  Q 145.47 573.52 145.01 574.72
  Q 144.52 575.99 143.71 577.09
  Q 142.59 578.62 141.97 580.59
  Q 140.54 585.14 137.91 588.83
  A 1.90 1.89 -38.5 0 0 137.70 590.64
  Q 138.71 593.15 138.07 595.99
  Q 137.50 598.48 136.36 600.99
  Q 136.27 601.20 136.41 601.38
  Q 136.70 601.75 136.41 602.11
  Q 134.49 604.53 134.93 607.02
  Q 135.06 607.74 134.41 607.39
  Q 133.45 606.88 133.14 607.86
  Q 117.52 590.98 109.28 574.70
  Q 88.10 532.82 90.54 483.84
  Q 93.83 481.78 96.87 479.97
  Q 100.50 477.81 103.14 476.02
  Q 130.82 457.24 157.41 436.94
  Q 160.81 434.34 164.52 431.39
  Z"
/>
<path fill="#44cabb" d="
  M 545.45 493.23
  L 495.45 613.22
  Q 495.67 611.46 494.14 611.01
  A 1.02 1.01 6.0 0 1 493.42 610.13
  L 493.31 608.92
  A 1.14 1.13 87.2 0 0 492.18 607.89
  L 491.39 607.89
  Q 490.83 607.89 490.65 607.35
  Q 490.26 606.13 490.77 604.93
  Q 490.96 604.50 490.72 604.11
  Q 489.09 601.44 486.58 599.68
  Q 486.32 599.50 486.28 599.19
  Q 486.26 599.05 486.21 598.92
  Q 486.12 598.69 485.95 598.52
  Q 483.97 596.55 481.75 594.81
  Q 481.50 594.62 481.23 594.77
  Q 480.92 594.94 480.78 594.61
  Q 479.60 591.79 476.83 589.61
  Q 474.46 587.74 472.46 585.60
  Q 469.62 582.57 466.80 579.71
  Q 466.46 579.37 465.97 579.32
  Q 465.77 579.30 465.59 579.38
  Q 465.07 579.60 464.62 579.26
  Q 463.86 578.67 462.98 578.25
  Q 461.94 577.75 461.36 577.30
  Q 456.72 573.70 452.32 570.12
  Q 450.43 568.59 448.75 566.69
  L 486.77 478.74
  Q 487.19 478.93 487.42 479.21
  Q 487.79 479.66 488.30 479.37
  Q 490.81 477.98 493.82 478.12
  Q 494.34 478.15 494.81 477.93
  Q 496.77 477.04 498.62 477.39
  Q 502.28 478.08 507.74 479.88
  Q 508.06 479.99 508.24 480.27
  Q 508.55 480.76 509.05 480.47
  Q 509.48 480.22 509.87 480.60
  Q 510.11 480.84 510.44 480.94
  Q 516.56 482.72 523.02 484.94
  C 523.95 485.26 525.17 485.10 526.07 485.44
  Q 529.19 486.61 532.41 487.16
  Q 533.72 487.39 534.96 487.92
  Q 536.23 488.45 537.51 489.04
  Q 537.96 489.24 538.25 489.65
  Q 538.64 490.21 539.37 490.13
  Q 539.86 490.08 540.23 490.40
  L 543.63 493.31
  Q 543.88 493.52 544.19 493.41
  Q 544.39 493.33 544.63 493.38
  Q 544.05 493.47 544.33 492.90
  A 0.53 0.49 2.2 0 1 544.61 492.66
  Q 545.23 492.45 545.45 493.23
  Z"
/>
<path fill="#37cbda" d="
  M 653.50 496.32
  Q 654.40 496.54 654.39 498.83
  Q 654.39 498.99 654.30 499.14
  Q 654.23 499.27 654.11 499.37
  Q 653.58 499.83 654.25 499.64
  Q 654.30 499.63 654.35 499.62
  Q 654.53 499.60 654.67 499.70
  Q 655.28 500.17 655.15 500.94
  Q 655.08 501.32 655.42 501.51
  Q 656.61 502.16 656.87 503.43
  Q 657.30 505.51 658.91 507.18
  Q 659.38 507.68 659.37 508.36
  Q 659.36 508.86 659.85 509.04
  Q 660.36 509.24 660.37 509.79
  L 660.37 510.17
  Q 660.37 510.67 660.69 511.06
  Q 661.31 511.81 660.84 512.56
  Q 660.52 513.09 661.10 513.31
  Q 661.27 513.37 661.44 513.43
  Q 662.38 513.73 661.45 514.04
  Q 660.88 514.23 660.28 514.32
  Q 660.03 514.35 660.23 514.51
  Q 660.29 514.56 660.33 514.62
  Q 660.39 514.73 660.30 514.81
  Q 659.02 515.96 659.46 517.84
  Q 660.24 521.17 662.80 520.61
  Q 663.46 520.46 662.85 520.17
  Q 662.18 519.84 661.50 519.94
  A 0.25 0.25 0.0 0 1 661.40 519.45
  Q 662.74 519.09 663.59 518.02
  A 0.69 0.69 0.0 0 1 664.74 518.13
  L 667.68 523.79
  Q 667.73 523.88 667.81 523.93
  Q 667.93 524.00 668.04 524.08
  Q 668.13 524.13 668.16 524.22
  Q 668.85 525.83 669.56 527.45
  Q 670.15 528.82 670.97 530.16
  Q 673.27 533.91 674.68 538.56
  Q 676.72 545.31 682.52 553.80
  A 0.76 0.70 -62.3 0 1 682.65 554.28
  Q 682.63 554.61 682.83 554.85
  Q 685.49 558.11 689.13 560.38
  Q 689.18 560.42 690.23 561.33
  Q 690.95 561.95 691.99 561.68
  Q 692.54 561.54 692.95 561.94
  L 694.43 563.38
  A 0.42 0.42 0.0 0 1 694.33 564.05
  L 693.99 564.23
  Q 693.70 564.39 694.02 564.45
  Q 695.14 564.64 694.86 565.24
  L 670.56 627.31
  Q 669.64 627.09 670.13 625.01
  Q 670.38 623.96 669.49 624.61
  Q 669.38 624.69 669.21 624.76
  Q 668.81 624.92 668.45 624.70
  Q 664.88 622.51 662.29 620.06
  C 661.80 619.59 660.77 619.47 660.18 619.00
  Q 658.33 617.52 656.57 615.94
  C 655.13 614.65 654.21 613.07 652.79 611.81
  Q 651.63 610.80 650.97 609.44
  Q 650.21 607.91 648.98 606.59
  Q 648.72 606.31 649.04 606.11
  L 649.45 605.84
  Q 649.74 605.65 649.99 605.89
  Q 650.80 606.63 651.88 605.87
  Q 653.11 605.00 652.29 603.72
  Q 650.18 600.45 647.92 597.22
  Q 647.87 597.14 647.87 597.04
  Q 647.87 596.99 647.88 596.94
  Q 647.91 596.73 647.78 596.56
  Q 643.65 591.07 639.82 586.54
  Q 634.95 580.77 631.73 574.15
  Q 631.65 573.99 631.50 573.89
  Q 631.23 573.72 630.95 573.54
  Q 630.55 573.28 630.38 572.83
  Q 629.90 571.60 629.32 570.42
  Q 628.86 569.49 627.90 568.93
  Q 626.99 568.41 626.01 568.08
  Q 625.84 568.03 625.92 567.88
  Q 625.94 567.83 625.99 567.82
  Q 626.32 567.81 626.13 567.53
  Q 625.73 566.92 625.03 566.77
  L 653.50 496.32
  Z"
/>
<path fill="#597cc6" d="
  M 873.76 568.22
  L 857.03 611.11
  Q 856.85 610.91 856.87 610.31
  Q 856.87 610.18 856.85 610.30
  Q 856.83 610.45 856.73 610.53
  Q 856.46 610.74 856.25 610.47
  Q 856.10 610.28 856.17 610.05
  Q 856.25 609.77 855.96 609.77
  Q 855.60 609.76 855.30 609.36
  Q 854.99 608.92 855.31 608.49
  Q 855.60 608.11 855.45 607.67
  Q 854.54 604.84 851.92 604.10
  Q 851.09 603.86 850.81 603.04
  Q 850.65 602.53 850.27 602.16
  Q 847.78 599.70 845.15 597.65
  Q 843.22 596.14 841.78 593.89
  Q 839.51 590.37 836.58 588.14
  A 1.83 1.77 9.4 0 1 835.96 587.30
  Q 835.15 584.95 832.83 583.72
  A 1.75 1.72 89.1 0 1 832.13 583.03
  L 828.66 576.90
  Q 828.41 576.47 827.99 576.21
  Q 827.57 575.95 827.42 575.49
  Q 826.62 573.14 824.87 571.33
  A 1.77 1.73 16.8 0 1 824.42 570.51
  C 824.06 568.93 823.75 567.24 823.03 565.76
  Q 822.52 564.74 822.25 563.51
  Q 822.20 563.30 822.36 563.15
  L 822.63 562.87
  Q 823.04 562.47 822.68 562.02
  Q 822.32 561.55 822.72 561.12
  Q 823.06 560.75 823.06 560.24
  Q 823.02 557.00 823.82 553.87
  Q 823.95 553.34 823.54 552.97
  Q 823.27 552.74 822.99 552.91
  Q 822.49 553.20 822.27 552.67
  Q 821.73 551.41 821.48 550.06
  Q 821.21 548.58 820.65 547.57
  Q 819.58 545.65 818.70 543.66
  Q 818.47 543.16 817.93 543.25
  Q 817.07 543.40 816.45 542.78
  L 830.32 507.22
  Q 830.70 507.09 831.15 507.11
  Q 831.44 507.12 831.35 506.85
  Q 831.31 506.73 831.22 506.64
  Q 831.09 506.52 831.17 506.37
  Q 831.24 506.24 831.34 506.15
  Q 831.66 505.86 831.90 506.30
  L 837.24 516.10
  Q 837.43 516.46 837.81 516.60
  Q 839.08 517.09 840.18 517.66
  C 840.96 518.07 841.26 518.99 841.33 519.81
  Q 841.37 520.27 841.68 520.62
  Q 842.83 521.86 843.35 523.43
  Q 843.48 523.82 843.89 523.90
  Q 844.27 523.97 844.58 524.18
  A 0.73 0.73 0.0 0 1 844.91 524.89
  Q 844.77 526.16 845.61 526.90
  Q 848.73 529.64 850.22 532.81
  Q 851.64 535.86 853.56 538.60
  Q 855.67 541.61 857.30 544.49
  Q 859.25 547.94 861.66 550.75
  Q 863.22 552.58 864.14 554.81
  Q 865.06 557.05 866.46 559.02
  Q 866.75 559.42 867.21 559.56
  Q 867.37 559.61 867.53 559.61
  Q 868.30 559.61 867.89 560.26
  Q 867.42 560.99 867.38 561.78
  A 0.11 0.10 10.4 0 1 867.24 561.87
  Q 867.10 561.82 866.98 561.74
  Q 866.91 561.68 866.84 561.75
  Q 865.85 562.77 866.62 563.77
  C 867.58 565.02 869.59 564.92 870.82 565.72
  Q 871.51 566.17 872.19 566.90
  Q 872.66 567.40 872.58 568.07
  Q 872.50 568.70 873.09 568.47
  L 873.76 568.22
  Z"
/>
<path fill="#f15a53" d="
  M 163.19 527.81
  Q 169.79 543.05 180.43 555.23
  Q 179.61 555.91 180.44 556.40
  A 1.15 1.15 0.0 0 1 180.77 558.09
  Q 180.20 558.82 179.82 557.98
  Q 179.50 557.28 179.00 557.86
  Q 177.83 559.18 176.91 561.01
  Q 176.85 561.12 176.96 561.21
  Q 177.00 561.24 177.03 561.29
  Q 177.13 561.51 176.96 561.69
  Q 175.46 563.22 174.74 564.77
  Q 173.21 568.04 171.86 572.17
  Q 171.42 573.51 170.76 574.76
  Q 170.20 575.83 169.88 577.00
  Q 169.24 579.28 169.18 579.47
  Q 168.67 581.08 168.34 582.81
  Q 168.02 584.48 167.22 585.89
  Q 164.88 589.96 164.33 594.37
  Q 164.13 596.01 163.75 597.56
  Q 163.22 599.79 162.78 600.62
  Q 161.02 603.93 160.09 607.53
  Q 159.97 608.00 159.56 608.24
  C 159.12 608.49 158.87 608.84 158.80 609.34
  Q 158.37 612.25 158.10 615.13
  Q 158.03 615.79 157.63 616.32
  Q 157.30 616.76 156.80 617.01
  Q 156.27 617.27 156.25 617.85
  L 155.89 627.28
  Q 143.01 618.42 133.14 607.86
  Q 133.45 606.88 134.41 607.39
  Q 135.06 607.74 134.93 607.02
  Q 134.49 604.53 136.41 602.11
  Q 136.70 601.75 136.41 601.38
  Q 136.27 601.20 136.36 600.99
  Q 137.50 598.48 138.07 595.99
  Q 138.71 593.15 137.70 590.64
  A 1.90 1.89 -38.5 0 1 137.91 588.83
  Q 140.54 585.14 141.97 580.59
  Q 142.59 578.62 143.71 577.09
  Q 144.52 575.99 145.01 574.72
  Q 145.47 573.52 146.34 572.49
  Q 148.14 570.35 148.77 567.41
  Q 149.91 562.02 152.14 556.83
  Q 152.66 555.61 152.67 554.21
  A 1.81 1.79 -29.7 0 1 152.93 553.28
  Q 155.43 549.11 156.89 544.60
  Q 157.87 541.56 159.99 539.21
  Q 160.87 538.23 161.14 537.20
  Q 161.41 536.21 162.01 535.33
  Q 162.34 534.83 162.27 534.26
  Q 162.22 533.88 162.47 533.58
  A 0.83 0.83 0.0 0 0 162.39 532.44
  Q 161.61 531.74 162.02 530.72
  Q 162.57 529.36 163.19 527.81
  Z"
/>
<path fill="#d4cd39" d="
  M 398.89 529.23
  Q 399.62 530.47 401.70 530.29
  Q 402.70 530.20 403.21 530.52
  Q 403.70 530.83 404.05 531.28
  Q 404.34 531.67 404.82 531.78
  Q 408.53 532.59 411.78 534.18
  Q 415.13 535.83 418.96 537.34
  Q 419.76 537.65 420.61 537.67
  Q 421.12 537.68 421.20 538.19
  Q 421.34 539.06 422.14 539.58
  Q 424.41 541.04 426.93 542.43
  Q 427.50 542.74 427.71 543.35
  Q 427.92 543.97 428.13 543.35
  Q 428.25 542.98 428.23 542.58
  Q 428.22 542.24 428.53 542.37
  Q 428.80 542.47 428.65 542.73
  A 0.28 0.27 4.4 0 0 428.99 543.12
  Q 429.25 543.02 429.38 542.75
  Q 429.60 542.31 429.64 542.80
  Q 429.67 543.31 430.14 543.45
  Q 430.47 543.55 430.72 543.80
  Q 432.44 545.53 434.52 546.81
  Q 434.92 547.05 435.10 547.49
  Q 435.49 548.45 436.30 549.05
  Q 436.55 549.23 436.24 549.29
  Q 435.83 549.38 435.81 549.82
  A 0.36 0.36 0.0 0 0 436.34 550.16
  Q 436.50 550.08 436.64 550.19
  Q 436.89 550.41 436.63 550.62
  Q 435.83 551.29 435.44 552.27
  A 0.88 0.86 35.9 0 0 435.59 553.15
  Q 436.89 554.62 438.43 553.54
  Q 438.88 553.22 438.96 553.76
  L 439.04 554.29
  Q 429.29 579.98 408.03 597.49
  Q 407.87 596.73 408.52 595.84
  Q 408.85 595.38 408.47 594.97
  Q 408.16 594.62 407.76 594.40
  Q 407.19 594.07 406.91 593.47
  Q 405.94 591.37 405.02 589.24
  Q 404.37 587.73 402.94 585.14
  Q 402.02 583.48 401.30 581.65
  Q 400.63 579.92 399.64 578.30
  Q 396.75 573.57 393.55 569.34
  Q 391.54 566.70 390.03 563.56
  Q 388.57 560.54 385.57 557.79
  C 384.96 557.23 384.83 556.72 384.34 556.18
  C 382.97 554.69 381.10 553.67 379.84 552.31
  Q 378.58 550.93 377.31 549.30
  Q 388.80 540.09 398.89 529.23
  Z"
/>
<path fill="#4987c9" d="
  M 816.45 542.78
  Q 817.07 543.40 817.93 543.25
  Q 818.47 543.16 818.70 543.66
  Q 819.58 545.65 820.65 547.57
  Q 821.21 548.58 821.48 550.06
  Q 821.73 551.41 822.27 552.67
  Q 822.49 553.20 822.99 552.91
  Q 823.27 552.74 823.54 552.97
  Q 823.95 553.34 823.82 553.87
  Q 823.02 557.00 823.06 560.24
  Q 823.06 560.75 822.72 561.12
  Q 822.32 561.55 822.68 562.02
  Q 823.04 562.47 822.63 562.87
  L 822.36 563.15
  Q 822.20 563.30 822.25 563.51
  Q 822.52 564.74 823.03 565.76
  C 823.75 567.24 824.06 568.93 824.42 570.51
  A 1.77 1.73 16.8 0 0 824.87 571.33
  Q 826.62 573.14 827.42 575.49
  Q 827.57 575.95 827.99 576.21
  Q 828.41 576.47 828.66 576.90
  L 832.13 583.03
  A 1.75 1.72 89.1 0 0 832.83 583.72
  Q 835.15 584.95 835.96 587.30
  A 1.83 1.77 9.4 0 0 836.58 588.14
  Q 839.51 590.37 841.78 593.89
  Q 843.22 596.14 845.15 597.65
  Q 847.78 599.70 850.27 602.16
  Q 850.65 602.53 850.81 603.04
  Q 851.09 603.86 851.92 604.10
  Q 854.54 604.84 855.45 607.67
  Q 855.60 608.11 855.31 608.49
  Q 854.99 608.92 855.30 609.36
  Q 855.60 609.76 855.96 609.77
  Q 856.25 609.77 856.17 610.05
  Q 856.10 610.28 856.25 610.47
  Q 856.46 610.74 856.73 610.53
  Q 856.83 610.45 856.85 610.30
  Q 856.87 610.18 856.87 610.31
  Q 856.85 610.91 857.03 611.11
  C 855.56 620.83 863.17 618.90 868.06 616.00
  Q 894.53 600.30 922.83 584.51
  A 0.40 0.39 -8.2 0 1 923.41 584.94
  Q 923.01 586.81 922.29 588.62
  C 916.05 604.33 910.34 619.28 903.12 634.27
  Q 898.72 643.38 893.92 650.04
  C 876.26 674.50 848.23 685.81 818.44 684.46
  C 798.16 683.53 781.30 672.09 779.92 650.70
  C 779.21 639.66 783.20 628.12 787.22 617.97
  Q 802.07 580.45 816.45 542.78
  Z"
/>
<path fill="#f6b72d" d="
  M 377.31 549.30
  Q 378.58 550.93 379.84 552.31
  C 381.10 553.67 382.97 554.69 384.34 556.18
  C 384.83 556.72 384.96 557.23 385.57 557.79
  Q 388.57 560.54 390.03 563.56
  Q 391.54 566.70 393.55 569.34
  Q 396.75 573.57 399.64 578.30
  Q 400.63 579.92 401.30 581.65
  Q 402.02 583.48 402.94 585.14
  Q 404.37 587.73 405.02 589.24
  Q 405.94 591.37 406.91 593.47
  Q 407.19 594.07 407.76 594.40
  Q 408.16 594.62 408.47 594.97
  Q 408.85 595.38 408.52 595.84
  Q 407.87 596.73 408.03 597.49
  Q 395.65 608.37 381.77 617.38
  Q 381.52 616.80 381.74 616.22
  Q 382.03 615.41 381.28 615.83
  L 380.79 616.10
  Q 380.23 616.40 379.77 615.95
  Q 379.37 615.56 379.54 615.08
  Q 379.71 614.59 379.22 614.38
  Q 378.73 614.18 378.14 614.17
  C 376.41 614.14 374.90 612.72 374.48 611.17
  Q 374.37 610.73 374.07 610.41
  Q 372.09 608.22 371.10 604.99
  Q 370.82 604.08 369.96 604.48
  A 1.07 1.06 44.0 0 1 369.07 604.49
  Q 367.61 603.84 367.22 602.54
  Q 366.94 601.59 366.53 600.65
  Q 364.60 596.24 362.85 591.99
  Q 361.10 587.76 358.87 583.33
  Q 358.66 582.90 358.25 582.65
  Q 357.66 582.27 357.84 581.58
  Q 357.97 581.04 357.57 580.65
  Q 356.72 579.84 356.40 578.73
  Q 356.19 578.01 355.46 577.84
  A 0.26 0.26 0.0 0 1 355.27 577.50
  Q 355.33 577.33 355.50 577.28
  Q 356.09 577.10 355.70 576.63
  Q 354.95 575.73 353.88 575.19
  A 1.15 1.12 -85.3 0 1 353.30 574.49
  Q 353.24 574.27 353.33 574.04
  A 0.60 0.59 38.4 0 0 353.26 573.49
  Q 352.72 572.69 352.01 573.05
  Q 351.60 573.26 351.50 572.80
  Q 351.23 571.51 350.45 570.26
  Q 350.19 569.84 349.70 569.90
  Q 348.50 570.07 347.52 569.73
  Q 363.13 560.88 377.31 549.30
  Z"
/>
<path fill="#f56e40" d="
  M 180.43 555.23
  Q 196.04 573.18 218.00 582.55
  Q 217.21 583.28 216.14 582.44
  Q 215.75 582.14 215.44 582.52
  Q 214.02 584.27 213.83 586.42
  Q 213.66 588.49 213.53 590.33
  Q 213.40 592.03 212.16 593.56
  Q 210.68 595.38 209.24 596.92
  A 0.91 0.90 68.1 0 0 208.99 597.52
  L 208.73 604.33
  A 0.56 0.55 -33.2 0 1 208.68 604.56
  Q 208.04 606.02 208.59 607.31
  Q 208.83 607.89 208.20 607.89
  L 207.25 607.89
  A 0.72 0.72 0.0 0 0 206.53 608.53
  C 206.41 609.72 206.09 611.00 206.34 612.17
  Q 206.99 615.25 207.40 618.25
  Q 207.63 619.97 208.07 621.70
  Q 208.51 623.44 208.77 625.31
  Q 209.14 628.07 209.88 630.72
  Q 210.59 633.28 210.99 635.42
  Q 211.35 637.32 210.36 640.44
  Q 210.27 640.71 210.51 640.87
  Q 210.74 641.02 210.65 641.28
  Q 209.97 643.25 211.18 644.87
  A 3.47 3.38 -64.2 0 1 211.87 646.94
  Q 211.87 648.89 212.94 651.89
  Q 181.21 644.95 155.89 627.28
  L 156.25 617.85
  Q 156.27 617.27 156.80 617.01
  Q 157.30 616.76 157.63 616.32
  Q 158.03 615.79 158.10 615.13
  Q 158.37 612.25 158.80 609.34
  C 158.87 608.84 159.12 608.49 159.56 608.24
  Q 159.97 608.00 160.09 607.53
  Q 161.02 603.93 162.78 600.62
  Q 163.22 599.79 163.75 597.56
  Q 164.13 596.01 164.33 594.37
  Q 164.88 589.96 167.22 585.89
  Q 168.02 584.48 168.34 582.81
  Q 168.67 581.08 169.18 579.47
  Q 169.24 579.28 169.88 577.00
  Q 170.20 575.83 170.76 574.76
  Q 171.42 573.51 171.86 572.17
  Q 173.21 568.04 174.74 564.77
  Q 175.46 563.22 176.96 561.69
  Q 177.13 561.51 177.03 561.29
  Q 177.00 561.24 176.96 561.21
  Q 176.85 561.12 176.91 561.01
  Q 177.83 559.18 179.00 557.86
  Q 179.50 557.28 179.82 557.98
  Q 180.20 558.82 180.77 558.09
  A 1.15 1.15 0.0 0 0 180.44 556.40
  Q 179.61 555.91 180.43 555.23
  Z"
/>
<path fill="#4fc58a" d="
  M 448.75 566.69
  Q 450.43 568.59 452.32 570.12
  Q 456.72 573.70 461.36 577.30
  Q 461.94 577.75 462.98 578.25
  Q 463.86 578.67 464.62 579.26
  Q 465.07 579.60 465.59 579.38
  Q 465.77 579.30 465.97 579.32
  Q 466.46 579.37 466.80 579.71
  Q 469.62 582.57 472.46 585.60
  Q 474.46 587.74 476.83 589.61
  Q 479.60 591.79 480.78 594.61
  Q 480.92 594.94 481.23 594.77
  Q 481.50 594.62 481.75 594.81
  Q 483.97 596.55 485.95 598.52
  Q 486.12 598.69 486.21 598.92
  Q 486.26 599.05 486.28 599.19
  Q 486.32 599.50 486.58 599.68
  Q 489.09 601.44 490.72 604.11
  Q 490.96 604.50 490.77 604.93
  Q 490.26 606.13 490.65 607.35
  Q 490.83 607.89 491.39 607.89
  L 492.18 607.89
  A 1.14 1.13 87.2 0 1 493.31 608.92
  L 493.42 610.13
  A 1.02 1.01 6.0 0 0 494.14 611.01
  Q 495.67 611.46 495.45 613.22
  Q 491.53 622.89 487.73 632.63
  Q 484.20 641.66 477.93 654.60
  Q 472.79 665.21 467.32 670.67
  C 457.77 680.22 444.55 685.26 431.04 683.19
  C 418.07 681.20 406.54 669.80 410.85 656.05
  C 413.61 647.25 417.62 638.77 421.32 630.12
  Q 433.79 600.95 446.29 572.03
  Q 447.48 569.28 448.75 566.69
  Z"
/>
<path fill="#34e0e6" d="
  M 625.03 566.77
  Q 625.73 566.92 626.13 567.53
  Q 626.32 567.81 625.99 567.82
  Q 625.94 567.83 625.92 567.88
  Q 625.84 568.03 626.01 568.08
  Q 626.99 568.41 627.90 568.93
  Q 628.86 569.49 629.32 570.42
  Q 629.90 571.60 630.38 572.83
  Q 630.55 573.28 630.95 573.54
  Q 631.23 573.72 631.50 573.89
  Q 631.65 573.99 631.73 574.15
  Q 634.95 580.77 639.82 586.54
  Q 643.65 591.07 647.78 596.56
  Q 647.91 596.73 647.88 596.94
  Q 647.87 596.99 647.87 597.04
  Q 647.87 597.14 647.92 597.22
  Q 650.18 600.45 652.29 603.72
  Q 653.11 605.00 651.88 605.87
  Q 650.80 606.63 649.99 605.89
  Q 649.74 605.65 649.45 605.84
  L 649.04 606.11
  Q 648.72 606.31 648.98 606.59
  Q 650.21 607.91 650.97 609.44
  Q 651.63 610.80 652.79 611.81
  C 654.21 613.07 655.13 614.65 656.57 615.94
  Q 658.33 617.52 660.18 619.00
  C 660.77 619.47 661.80 619.59 662.29 620.06
  Q 664.88 622.51 668.45 624.70
  Q 668.81 624.92 669.21 624.76
  Q 669.38 624.69 669.49 624.61
  Q 670.38 623.96 670.13 625.01
  Q 669.64 627.09 670.56 627.31
  Q 666.49 637.72 662.59 648.32
  C 656.59 664.64 643.65 680.04 625.73 682.96
  C 603.27 686.63 585.22 668.59 592.86 645.91
  C 596.08 636.35 600.54 626.65 604.55 616.83
  Q 614.49 592.46 624.59 567.19
  Q 624.77 566.76 625.03 566.77
  Z"
/>
<path fill="#fa9d28" d="
  M 347.52 569.73
  Q 348.50 570.07 349.70 569.90
  Q 350.19 569.84 350.45 570.26
  Q 351.23 571.51 351.50 572.80
  Q 351.60 573.26 352.01 573.05
  Q 352.72 572.69 353.26 573.49
  A 0.60 0.59 38.4 0 1 353.33 574.04
  Q 353.24 574.27 353.30 574.49
  A 1.15 1.12 -85.3 0 0 353.88 575.19
  Q 354.95 575.73 355.70 576.63
  Q 356.09 577.10 355.50 577.28
  Q 355.33 577.33 355.27 577.50
  A 0.26 0.26 0.0 0 0 355.46 577.84
  Q 356.19 578.01 356.40 578.73
  Q 356.72 579.84 357.57 580.65
  Q 357.97 581.04 357.84 581.58
  Q 357.66 582.27 358.25 582.65
  Q 358.66 582.90 358.87 583.33
  Q 361.10 587.76 362.85 591.99
  Q 364.60 596.24 366.53 600.65
  Q 366.94 601.59 367.22 602.54
  Q 367.61 603.84 369.07 604.49
  A 1.07 1.06 44.0 0 0 369.96 604.48
  Q 370.82 604.08 371.10 604.99
  Q 372.09 608.22 374.07 610.41
  Q 374.37 610.73 374.48 611.17
  C 374.90 612.72 376.41 614.14 378.14 614.17
  Q 378.73 614.18 379.22 614.38
  Q 379.71 614.59 379.54 615.08
  Q 379.37 615.56 379.77 615.95
  Q 380.23 616.40 380.79 616.10
  L 381.28 615.83
  Q 382.03 615.41 381.74 616.22
  Q 381.52 616.80 381.77 617.38
  C 347.98 640.01 308.19 652.87 267.76 655.59
  Q 267.62 655.38 267.47 655.26
  Q 266.86 654.77 267.64 654.87
  Q 267.81 654.89 267.98 654.85
  Q 268.54 654.73 268.41 654.17
  Q 268.01 652.54 266.86 651.98
  Q 266.28 651.70 265.93 651.17
  Q 264.02 648.29 261.51 646.20
  A 1.69 1.68 18.7 0 1 260.90 644.97
  Q 260.84 643.06 259.24 641.98
  Q 258.48 641.47 258.19 640.61
  Q 257.61 638.90 256.67 637.37
  Q 255.97 636.23 256.19 634.90
  Q 256.56 632.73 257.08 630.92
  Q 257.14 630.71 257.13 630.50
  Q 257.12 630.20 256.94 629.96
  Q 256.64 629.54 256.57 629.03
  Q 256.01 624.50 254.74 620.01
  Q 254.13 619.49 254.49 618.82
  Q 254.69 618.43 254.46 618.06
  Q 253.22 616.12 252.90 613.87
  Q 252.61 611.81 251.87 609.52
  Q 251.67 608.92 252.26 608.69
  Q 252.64 608.55 252.57 608.12
  Q 252.55 607.98 252.41 607.92
  Q 252.28 607.87 252.15 607.87
  Q 251.81 607.87 251.73 607.54
  Q 250.27 601.86 251.06 596.04
  Q 251.12 595.55 250.87 595.14
  Q 250.38 594.35 250.75 593.32
  A 0.05 0.05 0.0 0 1 250.84 593.32
  Q 250.91 593.51 251.08 593.40
  Q 252.08 592.76 250.91 592.67
  Q 250.63 592.65 250.73 592.37
  Q 250.88 591.96 251.18 591.74
  Q 251.48 591.51 251.83 591.21
  Q 292.09 594.83 328.73 578.93
  Q 337.07 575.31 347.52 569.73
  Z"
/>
<path fill="#f78332" d="
  M 218.00 582.55
  Q 234.16 589.44 251.83 591.21
  Q 251.48 591.51 251.18 591.74
  Q 250.88 591.96 250.73 592.37
  Q 250.63 592.65 250.91 592.67
  Q 252.08 592.76 251.08 593.40
  Q 250.91 593.51 250.84 593.32
  A 0.05 0.05 0.0 0 0 250.75 593.32
  Q 250.38 594.35 250.87 595.14
  Q 251.12 595.55 251.06 596.04
  Q 250.27 601.86 251.73 607.54
  Q 251.81 607.87 252.15 607.87
  Q 252.28 607.87 252.41 607.92
  Q 252.55 607.98 252.57 608.12
  Q 252.64 608.55 252.26 608.69
  Q 251.67 608.92 251.87 609.52
  Q 252.61 611.81 252.90 613.87
  Q 253.22 616.12 254.46 618.06
  Q 254.69 618.43 254.49 618.82
  Q 254.13 619.49 254.74 620.01
  Q 256.01 624.50 256.57 629.03
  Q 256.64 629.54 256.94 629.96
  Q 257.12 630.20 257.13 630.50
  Q 257.14 630.71 257.08 630.92
  Q 256.56 632.73 256.19 634.90
  Q 255.97 636.23 256.67 637.37
  Q 257.61 638.90 258.19 640.61
  Q 258.48 641.47 259.24 641.98
  Q 260.84 643.06 260.90 644.97
  A 1.69 1.68 18.7 0 0 261.51 646.20
  Q 264.02 648.29 265.93 651.17
  Q 266.28 651.70 266.86 651.98
  Q 268.01 652.54 268.41 654.17
  Q 268.54 654.73 267.98 654.85
  Q 267.81 654.89 267.64 654.87
  Q 266.86 654.77 267.47 655.26
  Q 267.62 655.38 267.76 655.59
  Q 239.65 657.61 212.94 651.89
  Q 211.87 648.89 211.87 646.94
  A 3.47 3.38 -64.2 0 0 211.18 644.87
  Q 209.97 643.25 210.65 641.28
  Q 210.74 641.02 210.51 640.87
  Q 210.27 640.71 210.36 640.44
  Q 211.35 637.32 210.99 635.42
  Q 210.59 633.28 209.88 630.72
  Q 209.14 628.07 208.77 625.31
  Q 208.51 623.44 208.07 621.70
  Q 207.63 619.97 207.40 618.25
  Q 206.99 615.25 206.34 612.17
  C 206.09 611.00 206.41 609.72 206.53 608.53
  A 0.72 0.72 0.0 0 1 207.25 607.89
  L 208.20 607.89
  Q 208.83 607.89 208.59 607.31
  Q 208.04 606.02 208.68 604.56
  A 0.56 0.55 -33.2 0 0 208.73 604.33
  L 208.99 597.52
  A 0.91 0.90 68.1 0 1 209.24 596.92
  Q 210.68 595.38 212.16 593.56
  Q 213.40 592.03 213.53 590.33
  Q 213.66 588.49 213.83 586.42
  Q 214.02 584.27 215.44 582.52
  Q 215.75 582.14 216.14 582.44
  Q 217.21 583.28 218.00 582.55
  Z"
/>
</svg>
